<?xml version="1.0" standalone="no"?>
<!DOCTYPE svg PUBLIC "-//W3C//DTD SVG 1.1//EN" "http://www.w3.org/Graphics/SVG/1.1/DTD/svg11.dtd" >
<svg xmlns="http://www.w3.org/2000/svg" xmlns:xlink="http://www.w3.org/1999/xlink" version="1.1">
<metadata>
Created by FontForge 20150102 at Sat Mar  7 09:09:13 2015
 By uniteet7
Copyright (c) Mark Simonson, 2005. All rights reserved.
</metadata>
<defs>
<font id="ProximaNovaCondensedSemibold" horiz-adv-x="538" >
  <font-face 
    font-family="ProximaNovaCondensedSemibold"
    font-weight="600"
    font-stretch="normal"
    units-per-em="1000"
    panose-1="2 0 7 6 9 0 0 2 0 3"
    ascent="800"
    descent="-200"
    x-height="483"
    cap-height="667"
    bbox="-68 -199 757 881"
    underline-thickness="20"
    underline-position="-113"
    unicode-range="U+0020-2122"
  />
<missing-glyph horiz-adv-x="364" 
d="M33 0v666h265v-666h-265zM66 33h199v600h-199v-600z" />
    <glyph glyph-name=".notdef" horiz-adv-x="364" 
d="M33 0v666h265v-666h-265zM66 33h199v600h-199v-600z" />
    <glyph glyph-name=".null" horiz-adv-x="0" 
 />
    <glyph glyph-name="nonmarkingreturn" horiz-adv-x="333" 
 />
    <glyph glyph-name="space" unicode=" " horiz-adv-x="211" 
 />
    <glyph glyph-name="space" unicode="&#xa0;" horiz-adv-x="211" 
 />
    <glyph glyph-name="exclam" unicode="!" horiz-adv-x="242" 
d="M78 201l-18 466h122l-18 -466h-86zM121 -10q-28 0 -47.5 19.5t-19.5 47.5q0 27 19.5 46.5t47.5 19.5t47.5 -19.5t19.5 -46.5q0 -28 -19.5 -47.5t-47.5 -19.5z" />
    <glyph glyph-name="quotedbl" unicode="&#x22;" horiz-adv-x="373" 
d="M83 395q-10 59 -17 107q-3 20 -6.5 40t-5.5 36l-3 28q-2 12 -2 15q0 23 17 39.5t40 16.5t39.5 -16.5t16.5 -39.5q0 -3 -1.5 -14.5t-4.5 -28.5l-5 -36l-6 -40l-16 -107h-46zM245 395q-10 59 -17 107q-3 20 -6.5 40t-5.5 37l-3 28q-2 11 -2 14q0 23 16.5 39.5t40.5 16.5
q23 0 39.5 -16.5t16.5 -39.5q0 -3 -1.5 -14.5t-3.5 -27.5l-6 -37l-6 -40l-17 -107h-45z" />
    <glyph glyph-name="numbersign" unicode="#" horiz-adv-x="524" 
d="M209 0l51 176h-85l-49 -176h-77l50 176h-81l18 66h83l51 183h-83l17 65h85l49 177h77l-50 -177h84l49 177h76l-50 -177h83l-17 -65h-84l-52 -183h86l-18 -66h-87l-50 -176h-76zM330 425h-84l-51 -183h82z" />
    <glyph glyph-name="dollar" unicode="$" horiz-adv-x="489" 
d="M214 -11q-62 5 -108.5 27t-80.5 57l56 86q23 -27 57 -47t76 -25v206q-30 13 -60.5 29t-54.5 38.5t-39 54t-15 76.5q0 35 12 66t33.5 55t53 40.5t70.5 22.5v93h76v-92q47 -5 86 -23.5t69 -47.5l-53 -84q-22 23 -47.5 36t-54.5 18v-187q30 -14 60 -30.5t54 -40t39 -56
t15 -77.5q0 -72 -42 -125t-126 -67v-92h-76v89zM345 176q0 28 -15.5 47t-39.5 34v-162q28 11 41.5 33t13.5 48zM158 498q0 -26 15.5 -43.5t40.5 -31.5v150q-26 -8 -41 -27.5t-15 -47.5z" />
    <glyph glyph-name="percent" unicode="%" horiz-adv-x="663" 
d="M172 346q-33 0 -60 12.5t-46 35t-29.5 52.5t-10.5 65t10.5 65.5t29.5 53t46 35t60 12.5t60 -12.5t46 -35t29.5 -53t10.5 -65.5t-10.5 -65t-29.5 -52.5t-46 -35t-60 -12.5zM129 0l351 667h57l-352 -667h-56zM491 -12q-33 0 -60 12.5t-46 34.5t-29.5 52t-10.5 65t10.5 65.5
t29.5 53t46 35.5t60 13t60 -13t46 -35.5t29.5 -53t10.5 -65.5t-10.5 -65t-29.5 -52t-46 -34.5t-60 -12.5zM172 410q34 0 54 28t20 73t-20 74t-54 29t-54.5 -29t-20.5 -74t20.5 -73t54.5 -28zM491 51q34 0 54.5 28t20.5 73q0 46 -20.5 74.5t-54.5 28.5t-54.5 -28.5
t-20.5 -74.5q0 -45 20.5 -73t54.5 -28z" />
    <glyph glyph-name="ampersand" unicode="&#x26;" 
d="M410 0l-22 26q-11 14 -22 29q-32 -31 -70.5 -49t-86.5 -18q-38 0 -70.5 12t-56.5 35.5t-38 58.5t-14 80q0 38 10 67.5t27 53t39 42t46 34.5q-19 38 -30.5 75.5t-11.5 69.5q0 35 11.5 64.5t32 51t48.5 33.5t61 12q29 0 54.5 -9.5t44.5 -27.5t30 -43.5t11 -56.5
q0 -36 -12 -64t-31.5 -49.5t-44.5 -39.5t-50 -34q13 -23 27 -43l25 -37l27 -39q12 -18 25 -35q17 35 29 70.5t20 64.5l81 -37q-14 -44 -33 -87.5t-43 -81.5l50 -61l56 -67h-119zM225 68q26 0 49 13.5t43 36.5l-38 50q-18 24 -30 43l-58 90q-26 -23 -42 -51.5t-16 -68.5
q0 -53 27.5 -83t64.5 -30zM205 515q0 -21 7 -45t18 -50q36 23 61 49.5t25 66.5q0 34 -15 50.5t-36 16.5q-27 0 -43.5 -22.5t-16.5 -65.5z" />
    <glyph glyph-name="quotesingle" unicode="'" horiz-adv-x="211" 
d="M83 395q-10 59 -17 107q-3 20 -6.5 40t-5.5 36l-3 28q-2 12 -2 15q0 23 17 39.5t40 16.5t39.5 -16.5t16.5 -39.5q0 -3 -1.5 -14.5t-4.5 -28.5l-5 -36l-6 -40l-16 -107h-46z" />
    <glyph glyph-name="parenleft" unicode="(" horiz-adv-x="257" 
d="M171 -199q-61 96 -93.5 208.5t-32.5 233.5t32.5 233.5t93.5 208.5l67 -39q-41 -93 -63 -188.5t-22 -214.5q0 -59 5.5 -112t16.5 -102t27 -95.5t36 -92.5z" />
    <glyph glyph-name="parenright" unicode=")" horiz-adv-x="257" 
d="M19 -159q20 46 35.5 92.5t26.5 95.5t17 102t6 112q0 60 -6 113t-17 102t-26.5 95t-35.5 93l66 39q61 -96 94 -208.5t33 -233.5t-33 -233.5t-94 -208.5z" />
    <glyph glyph-name="asterisk" unicode="*" horiz-adv-x="330" 
d="M138 379l5 112l-94 -61l-27 47l100 51l-100 51l27 46l94 -61l-5 113h54l-6 -113l95 61l27 -46l-100 -51l100 -51l-27 -47l-95 61l6 -112h-54z" />
    <glyph glyph-name="plus" unicode="+" horiz-adv-x="441" 
d="M256 305v-179h-71v179h-156v65h156v171h71v-171h156v-65h-156z" />
    <glyph glyph-name="comma" unicode="," horiz-adv-x="243" 
d="M193 35q0 -51 -25 -94.5t-66 -71.5l-45 37q12 7 23.5 18t21 23.5t16.5 26t9 25.5q-2 -1 -6.5 -1.5t-9.5 -0.5q-24 0 -40.5 17t-16.5 44t19 46t46 19q30 0 52 -23t22 -65z" />
    <glyph glyph-name="hyphen" unicode="-" horiz-adv-x="270" 
d="M30 199v86h210v-86h-210z" />
    <glyph glyph-name="period" unicode="." horiz-adv-x="242" 
d="M121 -10q-27 0 -47 19.5t-20 47.5q0 27 20 46.5t47 19.5q28 0 47.5 -19.5t19.5 -46.5q0 -28 -19.5 -47.5t-47.5 -19.5z" />
    <glyph glyph-name="slash" unicode="/" horiz-adv-x="265" 
d="M0 -20l192 707h73l-192 -707h-73z" />
    <glyph glyph-name="zero" unicode="0" horiz-adv-x="528" 
d="M264 -12q-61 0 -103.5 30.5t-69.5 79.5t-39.5 110.5t-12.5 124.5t12.5 124.5t39.5 110t69.5 79t103.5 30.5t104 -30.5t70 -79t39.5 -110t12.5 -124.5t-12.5 -124.5t-39.5 -110.5t-70 -79.5t-104 -30.5zM264 86q33 0 55 20.5t35 54.5t18 78.5t5 93.5t-5 93.5t-18 78.5
t-35 54t-55 20t-54.5 -20t-34.5 -54t-18 -78.5t-5 -93.5t5 -93.5t17.5 -78.5t34.5 -54.5t55 -20.5z" />
    <glyph glyph-name="one" unicode="1" horiz-adv-x="352" 
d="M177 0v524l-101 -107l-65 67l180 183h97v-667h-111z" />
    <glyph glyph-name="two" unicode="2" horiz-adv-x="510" 
d="M47 0v90l145 150q57 61 91 104t47.5 74.5t13.5 63.5q0 46 -29 71.5t-69 25.5q-46 0 -81 -20.5t-61 -58.5l-68 69q38 52 91 80t121 28q44 0 82 -13t66 -38t44 -61t16 -82q0 -40 -15 -79t-45.5 -84t-77.5 -99l-110 -124h251v-97h-412z" />
    <glyph glyph-name="three" unicode="3" horiz-adv-x="498" 
d="M240 -12q-76 0 -131.5 31.5t-84.5 77.5l69 68q24 -35 61 -57t82 -22q57 0 84 29t27 77q0 28 -9 47t-25 31t-37.5 17t-46.5 5q-16 0 -32.5 -0.5t-24.5 -1.5v100q8 -1 25 -1h30q48 0 79.5 22.5t31.5 70.5q0 49 -29.5 73t-75.5 24q-42 0 -75.5 -19t-59.5 -53l-66 63
q34 50 87 78.5t122 28.5q45 0 83 -11.5t65.5 -34t42.5 -56t15 -77.5q0 -30 -10 -56t-27 -46t-39.5 -33t-46.5 -18q24 -4 48 -16.5t42.5 -33.5t30.5 -49.5t12 -63.5q0 -43 -15 -78.5t-43 -61t-68 -40t-91 -14.5z" />
    <glyph glyph-name="four" unicode="4" horiz-adv-x="493" 
d="M291 0v154h-269v95l238 418h141v-415h70v-98h-70v-154h-110zM291 551l-169 -299h169v299z" />
    <glyph glyph-name="five" unicode="5" horiz-adv-x="514" 
d="M257 -12q-76 0 -126.5 28t-85.5 79l69 70q25 -38 59.5 -58.5t80.5 -20.5q25 0 45.5 10t35 27t22 39t7.5 47q0 59 -28 91t-77 32q-34 0 -61.5 -13.5t-53.5 -44.5l-81 23v370h376v-97h-265v-199q20 24 52 40.5t71 16.5q37 0 69.5 -14t57 -41.5t38.5 -68t14 -92.5
q0 -49 -16 -90t-44.5 -71t-69 -46.5t-89.5 -16.5z" />
    <glyph glyph-name="six" unicode="6" horiz-adv-x="513" 
d="M271 -12q-64 0 -108 28t-71.5 75.5t-40 110t-12.5 131.5q0 71 15.5 134t46.5 109.5t78 73.5t110 27q53 0 95 -21t69 -56l-56 -80q-20 28 -44.5 43.5t-62.5 15.5q-35 0 -61 -19.5t-43.5 -51.5t-26 -73t-8.5 -84v-16q9 18 23.5 34t33 29t41 20.5t47.5 7.5q37 0 70 -13.5
t58 -40.5t39.5 -67.5t14.5 -93.5q0 -46 -14.5 -86.5t-41.5 -71t-65 -48t-86 -17.5zM265 86q26 0 45 10.5t31.5 28t18.5 39t6 43.5q0 34 -8.5 57.5t-22.5 38.5t-32.5 21.5t-39.5 6.5q-36 0 -65 -24.5t-46 -58.5q1 -26 7.5 -54.5t19 -52.5t33.5 -39.5t53 -15.5z" />
    <glyph glyph-name="seven" unicode="7" horiz-adv-x="450" 
d="M97 0l207 570h-281v97h406v-77l-212 -590h-120z" />
    <glyph glyph-name="eight" unicode="8" horiz-adv-x="509" 
d="M255 -12q-48 0 -88 12t-68.5 35t-44.5 56.5t-16 76.5q0 31 11 59t29 50.5t41.5 39.5t49.5 27q-24 9 -46 23t-39 34.5t-27 46t-10 57.5q0 45 18 77.5t47 53.5t66.5 31t76.5 10t76 -10t66 -31t47 -53.5t18 -77.5q0 -32 -10 -57.5t-27 -46t-39 -34.5t-45 -23
q25 -10 48.5 -27t42 -39.5t29.5 -50.5t11 -59q0 -43 -16 -76.5t-45 -56.5t-69 -35t-87 -12zM255 384q10 2 26 9t31.5 19.5t27 30.5t11.5 44q0 43 -26.5 67.5t-69.5 24.5q-44 0 -70.5 -24.5t-26.5 -67.5q0 -26 11.5 -44t27 -30.5t32 -19.5t26.5 -9zM255 86q43 0 74 25t31 72
q0 28 -12.5 49t-30 35.5t-35 22t-27.5 9.5q-11 -2 -28.5 -9.5t-35 -22t-30 -35.5t-12.5 -49q0 -47 30.5 -72t75.5 -25z" />
    <glyph glyph-name="nine" unicode="9" horiz-adv-x="513" 
d="M224 -11q-53 0 -95 21t-69 56l56 80q20 -28 44.5 -43.5t62.5 -15.5q36 0 62 19.5t43 51.5t25.5 73t8.5 84v16q-9 -18 -23.5 -34t-33.5 -29t-41 -20.5t-47 -7.5q-37 0 -70 13.5t-58 40.5t-39.5 67.5t-14.5 93.5q0 46 14.5 86.5t41.5 71t65 48t86 17.5q64 0 108 -28
t71.5 -75.5t40 -110t12.5 -131.5q0 -71 -15.5 -134t-46.5 -109.5t-78 -73.5t-110 -27zM250 335q36 0 64.5 24.5t46.5 58.5q-2 26 -8 54.5t-18.5 52.5t-33.5 39.5t-52 15.5q-26 0 -45.5 -11t-32 -28t-18.5 -38.5t-6 -43.5q0 -34 8.5 -57.5t22.5 -38.5t32.5 -21.5t39.5 -6.5z
" />
    <glyph glyph-name="colon" unicode=":" horiz-adv-x="238" 
d="M121 356q-27 0 -47 20t-20 47t20 47t47 20q28 0 47.5 -20t19.5 -47t-19.5 -47t-47.5 -20zM121 -10q-27 0 -47 19.5t-20 47.5q0 27 20 46.5t47 19.5q28 0 47.5 -19.5t19.5 -46.5q0 -28 -19.5 -47.5t-47.5 -19.5z" />
    <glyph glyph-name="semicolon" unicode=";" horiz-adv-x="242" 
d="M121 356q-27 0 -47 20t-20 47q0 28 20 47.5t47 19.5q28 0 47.5 -19.5t19.5 -47.5q0 -27 -19.5 -47t-47.5 -20zM193 38q0 -51 -25 -94.5t-66 -72.5l-45 37q24 15 44.5 41.5t25.5 52.5q-2 -1 -6.5 -1.5t-9.5 -0.5q-24 0 -40.5 17t-16.5 43q0 27 19 46.5t46 19.5
q30 0 52 -23t22 -65z" />
    <glyph glyph-name="less" unicode="&#x3c;" horiz-adv-x="441" 
d="M29 299v71l383 176v-77l-306 -135l306 -133v-77z" />
    <glyph glyph-name="equal" unicode="=" horiz-adv-x="441" 
d="M29 397v65h383v-65h-383zM29 206v65h383v-65h-383z" />
    <glyph glyph-name="greater" unicode="&#x3e;" horiz-adv-x="441" 
d="M29 124v77l307 133l-307 135v77l383 -176v-71z" />
    <glyph glyph-name="question" unicode="?" horiz-adv-x="390" 
d="M158 194q-31 34 -31 86q0 29 9.5 51.5t24 40t31.5 32.5t31.5 30.5t24 33t9.5 40.5q0 28 -20 50t-60 22q-32 0 -56 -13.5t-44 -37.5l-55 70q32 38 76.5 58t97.5 20q40 0 72 -11.5t54.5 -31.5t34.5 -47t12 -59q0 -51 -23 -84.5t-51 -60t-51 -52t-23 -59.5q0 -13 6 -26
t14 -21zM194 -10q-27 0 -47 19.5t-20 47.5q0 27 20 46.5t47 19.5q28 0 47.5 -19.5t19.5 -46.5q0 -28 -19.5 -47.5t-47.5 -19.5z" />
    <glyph glyph-name="at" unicode="@" horiz-adv-x="703" 
d="M310 -70q-62 0 -112.5 22t-86.5 62t-56 95t-20 121q0 81 30 155t81 130t118 89.5t141 33.5q59 0 107.5 -20.5t83 -57.5t53.5 -87.5t19 -111.5q0 -63 -15 -114t-39.5 -87t-55.5 -55.5t-63 -19.5q-38 0 -61 21t-27 52l-1 7q-23 -33 -56 -56.5t-75 -23.5q-53 0 -88.5 36.5
t-35.5 109.5q0 51 16.5 99t45 85.5t66.5 60.5t81 23q39 0 64 -20.5t36 -49.5l11 54h89l-55 -259q-1 -4 -1.5 -11.5t-0.5 -11.5q-1 -25 8.5 -36t26.5 -11q12 0 28 12.5t30 38.5t23.5 64.5t9.5 91.5q0 55 -16 100t-46 76t-71.5 48t-92.5 17q-68 0 -128 -31.5t-105 -83
t-71 -118.5t-26 -138q0 -57 17 -105.5t48.5 -84.5t76 -56t100.5 -20q48 0 87.5 15t76.5 41l19 -28q-43 -30 -90 -46.5t-98 -16.5zM312 157q18 0 34 6.5t29 17t23.5 23.5t18.5 26l29 137q-3 10 -8.5 20.5t-14 19.5t-20 14.5t-26.5 5.5q-30 0 -55 -17.5t-42 -44.5t-26.5 -60
t-9.5 -64q0 -38 17 -61t51 -23z" />
    <glyph glyph-name="A" unicode="A" 
d="M416 0l-37 132h-220l-37 -132h-119l200 667h132l200 -667h-119zM269 549l-88 -319h176z" />
    <glyph glyph-name="B" unicode="B" horiz-adv-x="541" 
d="M64 0v667h253q42 0 74.5 -13t54 -36t32.5 -54t11 -67q0 -63 -30 -102.5t-75 -50.5q25 -4 46 -18.5t36.5 -36.5t24.5 -50t9 -59q0 -39 -11 -72t-33 -57t-55 -37.5t-77 -13.5h-260zM292 389q43 0 63 25t20 65q0 39 -20 65t-63 26h-118v-181h118zM297 97q44 0 66.5 25.5
t22.5 72.5q0 40 -22 68.5t-67 28.5h-123v-195h123z" />
    <glyph glyph-name="C" unicode="C" horiz-adv-x="549" 
d="M312 -12q-63 0 -113.5 25.5t-86 71.5t-54.5 109.5t-19 138.5t19 138.5t54.5 109.5t86 71.5t113.5 25.5q44 0 77.5 -12.5t59 -33t44 -47t31.5 -54.5l-91 -41q-18 40 -48.5 65t-72.5 25q-37 0 -66.5 -18.5t-50.5 -51.5t-32 -78t-11 -99t11 -99t32 -78t50.5 -51.5
t66.5 -18.5q44 0 74.5 28t46.5 70l92 -40q-13 -29 -31.5 -57t-44 -50t-59.5 -35.5t-78 -13.5z" />
    <glyph glyph-name="D" unicode="D" horiz-adv-x="584" 
d="M64 0v667h199q68 0 120.5 -25t88.5 -70t54.5 -106t18.5 -133q0 -73 -18.5 -134t-54 -105.5t-88 -69t-120.5 -24.5h-200zM263 97q41 0 72.5 17.5t53 49t32.5 74.5t11 95q0 53 -10.5 96.5t-32 75t-53 48.5t-73.5 17h-89v-473h89z" />
    <glyph glyph-name="E" unicode="E" horiz-adv-x="473" 
d="M64 0v667h366v-97h-256v-181h249v-97h-249v-195h256v-97h-366z" />
    <glyph glyph-name="F" unicode="F" horiz-adv-x="464" 
d="M64 0v667h366v-97h-256v-181h249v-97h-249v-292h-110z" />
    <glyph glyph-name="G" unicode="G" horiz-adv-x="578" 
d="M312 -12q-62 0 -112.5 25t-86 70.5t-55 109t-19.5 140.5q0 78 19.5 141.5t55.5 108.5t86 70t112 25q41 0 74 -11t59 -30.5t46 -45.5t34 -55l-89 -43q-19 37 -49.5 62t-74.5 25q-36 0 -65.5 -17t-50.5 -49t-32.5 -78t-11.5 -103t11.5 -102.5t32.5 -78t50.5 -49.5t65.5 -17
q38 0 67 14.5t46 33.5v124h-142v97h246v-265q-39 -48 -93.5 -75t-123.5 -27z" />
    <glyph glyph-name="H" unicode="H" horiz-adv-x="595" 
d="M421 0v294h-247v-294h-110v667h110v-275h247v275h110v-667h-110z" />
    <glyph glyph-name="I" unicode="I" horiz-adv-x="238" 
d="M64 0v667h110v-667h-110z" />
    <glyph glyph-name="J" unicode="J" horiz-adv-x="410" 
d="M150 -12q-41 0 -77 13t-65 42l43 87q17 -20 39 -32t50 -12q45 0 70.5 26.5t25.5 75.5v479h111v-483q0 -51 -14.5 -88t-41 -61t-62.5 -35.5t-79 -11.5z" />
    <glyph glyph-name="K" unicode="K" horiz-adv-x="536" 
d="M398 0l-172 275l-52 -77v-198h-110v667h110v-321l209 321h129l-218 -315l235 -352h-131z" />
    <glyph glyph-name="L" unicode="L" horiz-adv-x="429" 
d="M60 0v667h110v-570h233v-97h-343z" />
    <glyph glyph-name="M" unicode="M" horiz-adv-x="714" 
d="M541 0v488l-163 -488h-42l-162 488v-488h-110v667h149l144 -434l145 434h148v-667h-109z" />
    <glyph glyph-name="N" unicode="N" horiz-adv-x="594" 
d="M424 0l-250 450v-450h-110v667h112l243 -437v437h111v-667h-106z" />
    <glyph glyph-name="O" unicode="O" horiz-adv-x="615" 
d="M307 -12q-64 0 -113.5 26.5t-84 72.5t-52.5 109t-18 137q0 73 18 136.5t52.5 109.5t84 72.5t113.5 26.5t114 -26.5t84.5 -72.5t52.5 -109.5t18 -136.5q0 -74 -18 -137t-52.5 -109t-84.5 -72.5t-114 -26.5zM307 86q37 0 66 19t49 52.5t30 78.5t10 97t-10 97.5t-30 78.5
t-49 52t-66 19q-38 0 -66.5 -19t-48.5 -52t-30 -78.5t-10 -97.5t10 -97t30 -78.5t48.5 -52.5t66.5 -19z" />
    <glyph glyph-name="P" unicode="P" horiz-adv-x="515" 
d="M64 0v667h227q49 0 86.5 -16.5t62 -45t37 -66t12.5 -79.5t-12.5 -79.5t-37.5 -66t-62 -45t-86 -16.5h-117v-253h-110zM278 350q45 0 71.5 30t26.5 80q0 49 -26.5 79.5t-71.5 30.5h-104v-220h104z" />
    <glyph glyph-name="Q" unicode="Q" horiz-adv-x="615" 
d="M307 -12q-64 0 -113.5 26.5t-84 72.5t-52.5 109t-18 137q0 73 18 136.5t52.5 109.5t84 72.5t113.5 26.5t114 -26.5t84.5 -72.5t52.5 -109.5t18 -136.5q0 -86 -24 -156t-70 -117l30 -48l-77 -47l-28 43q-46 -20 -100 -20zM307 86q23 0 45 8l-73 116l78 48l64 -102
q20 33 30.5 78t10.5 99q0 52 -10 97.5t-30 78.5t-49 52t-66 19q-38 0 -66.5 -19t-48.5 -52t-30 -78.5t-10 -97.5t10 -97t30 -78.5t48.5 -52.5t66.5 -19z" />
    <glyph glyph-name="R" unicode="R" horiz-adv-x="535" 
d="M371 0l-114 252h-83v-252h-110v667h230q43 0 79.5 -15t62 -42t40 -65t14.5 -84q0 -44 -11 -76.5t-29 -56t-40.5 -37.5t-44.5 -20l130 -271h-124zM278 350q45 0 71.5 30t26.5 80t-26.5 80t-71.5 30h-104v-220h104z" />
    <glyph glyph-name="S" unicode="S" horiz-adv-x="488" 
d="M238 -12q-72 0 -125 23t-91 62l56 86q27 -31 68 -52t91 -21q54 0 79.5 27t25.5 63q0 34 -22 55.5t-55.5 38t-72.5 32.5t-72.5 39.5t-55.5 59t-22 90.5q0 39 15 73t42 59.5t65.5 40t85.5 14.5q60 0 108.5 -19t83.5 -54l-53 -84q-29 30 -65.5 44t-76.5 14q-41 0 -66.5 -22
t-25.5 -59q0 -30 22 -49.5t55.5 -36t72.5 -33t72.5 -41.5t55.5 -61.5t22 -92.5q0 -41 -13.5 -76.5t-41 -62t-68 -42t-94.5 -15.5z" />
    <glyph glyph-name="T" unicode="T" horiz-adv-x="464" 
d="M177 0v570h-154v97h417v-97h-153v-570h-110z" />
    <glyph glyph-name="U" unicode="U" horiz-adv-x="593" 
d="M297 -12q-109 0 -171 61t-62 176v442h111v-443q0 -68 31.5 -103t90.5 -35q58 0 89.5 35t31.5 103v443h111v-442q0 -115 -62 -176t-170 -61z" />
    <glyph glyph-name="V" unicode="V" 
d="M203 0l-200 667h119l147 -535l147 535h119l-200 -667h-132z" />
    <glyph glyph-name="W" unicode="W" horiz-adv-x="747" 
d="M470 0l-96 478l-97 -478h-115l-152 667h119l96 -497l104 497h89l104 -497l96 497h119l-151 -667h-116z" />
    <glyph glyph-name="X" unicode="X" 
d="M408 0l-139 253l-139 -253h-127l198 341l-187 326h128l127 -240l127 240h128l-187 -325l199 -342h-128z" />
    <glyph glyph-name="Y" unicode="Y" horiz-adv-x="524" 
d="M207 0v278l-207 389h122l140 -285l140 285h122l-207 -389v-278h-110z" />
    <glyph glyph-name="Z" unicode="Z" horiz-adv-x="477" 
d="M38 0v92l260 478h-260v97h394v-90l-262 -480h269v-97h-401z" />
    <glyph glyph-name="bracketleft" unicode="[" horiz-adv-x="229" 
d="M39 -190v868h173v-69h-99v-730h99v-69h-173z" />
    <glyph glyph-name="backslash" unicode="\" horiz-adv-x="265" 
d="M0 687h74l192 -707h-74z" />
    <glyph glyph-name="bracketright" unicode="]" horiz-adv-x="229" 
d="M17 -190v69h99v730h-99v69h173v-868h-173z" />
    <glyph glyph-name="asciicircum" unicode="^" horiz-adv-x="386" 
d="M291 333l-98 259l-99 -259h-75l137 334h74l137 -334h-76z" />
    <glyph glyph-name="underscore" unicode="_" horiz-adv-x="422" 
d="M-3 -109v69h428v-69h-428z" />
    <glyph glyph-name="grave" unicode="`" horiz-adv-x="203" 
d="M135 556l-135 144h92l111 -144h-68z" />
    <glyph glyph-name="a" unicode="a" horiz-adv-x="469" 
d="M310 0v51q-22 -32 -56 -47.5t-72 -15.5q-29 0 -55.5 10.5t-47 31t-33 50.5t-12.5 68q0 39 12.5 69t33 49.5t47 29.5t55.5 10q38 0 72.5 -14.5t55.5 -45.5v72q0 44 -24.5 68t-69.5 24q-32 0 -62 -13.5t-59 -42.5l-39 70q37 38 83.5 54.5t94.5 16.5q38 0 70 -9t55.5 -29
t37 -51t13.5 -75v-331h-100zM218 57q28 0 53 12t39 38v79q-14 27 -39 39t-53 12q-38 0 -61 -25.5t-23 -64.5t23 -64.5t61 -25.5z" />
    <glyph glyph-name="b" unicode="b" horiz-adv-x="495" 
d="M158 142q14 -28 40.5 -47t55.5 -19q26 0 45.5 12.5t32.5 35t19.5 52.5t6.5 65t-6.5 65.5t-19.5 53t-32.5 35t-45.5 12.5q-29 0 -55.5 -20t-40.5 -47v-198zM59 0v667h99v-249q23 39 56.5 58t68.5 19q41 0 74 -18t56 -51.5t35 -80.5t12 -104q0 -59 -12.5 -105.5
t-35.5 -79.5t-55.5 -50.5t-73.5 -17.5q-37 0 -70 20t-55 56v-64h-99z" />
    <glyph glyph-name="c" unicode="c" horiz-adv-x="417" 
d="M247 -12q-48 0 -87.5 19t-67 53t-42.5 80.5t-15 101.5q0 54 15 100.5t42.5 80.5t67 53t87.5 19q54 0 90 -19t58 -46l-50 -68q-35 45 -87 45q-29 0 -51 -13t-37.5 -35t-23.5 -52.5t-8 -64.5q0 -35 8 -65t23.5 -52.5t37.5 -35.5t51 -13q51 0 87 45l50 -68
q-22 -28 -58 -46.5t-90 -18.5z" />
    <glyph glyph-name="d" unicode="d" horiz-adv-x="495" 
d="M337 0v64q-22 -36 -55 -56t-70 -20q-41 0 -73.5 17.5t-55.5 50.5t-35.5 79.5t-12.5 105.5q0 57 12.5 104t35.5 80.5t55.5 51.5t73.5 18q36 0 69.5 -19t55.5 -58v249h99v-667h-99zM242 76q29 0 55.5 19.5t39.5 46.5v199q-13 27 -39.5 46.5t-55.5 19.5q-26 0 -45.5 -12.5
t-32.5 -35t-19.5 -53t-6.5 -65.5t6.5 -65t19.5 -52.5t32.5 -35t45.5 -12.5z" />
    <glyph glyph-name="e" unicode="e" horiz-adv-x="476" 
d="M253 -12q-50 0 -90 18.5t-68.5 52t-44 80.5t-15.5 103q0 52 14.5 98.5t41.5 80.5t65.5 54t86.5 20q49 0 87 -19.5t63 -54t38 -81.5t13 -101v-30h-308q1 -30 10 -55t25 -44t39 -29.5t53 -10.5q29 0 58.5 13t51.5 39l48 -60q-32 -35 -75 -54.5t-93 -19.5zM348 280
q0 22 -6 46t-18.5 43t-32.5 31.5t-49 12.5t-49 -12.5t-32.5 -32t-18.5 -43t-7 -45.5h213z" />
    <glyph glyph-name="f" unicode="f" horiz-adv-x="273" 
d="M79 0v396h-63v87h63v44q0 72 36 111t100 39q27 0 52.5 -8t43.5 -26l-33 -71q-18 19 -45 19q-26 0 -40.5 -17t-14.5 -47v-44h80v-87h-80v-396h-99z" />
    <glyph glyph-name="g" unicode="g" horiz-adv-x="495" 
d="M227 -196q-52 0 -93.5 13.5t-78.5 48.5l42 78q48 -54 125 -54q23 0 44 6.5t36.5 20.5t25 36.5t9.5 54.5v70q-22 -37 -55 -57.5t-70 -20.5q-82 0 -129.5 64.5t-47.5 182.5q0 115 47.5 181.5t129.5 66.5q36 0 69 -19t56 -58v65h99v-475q0 -59 -18 -98t-47 -62.5t-67 -33.5
t-77 -10zM242 88q29 0 55.5 19.5t39.5 46.5v187q-13 27 -39.5 46.5t-55.5 19.5q-53 0 -78.5 -45t-25.5 -115t25.5 -114.5t78.5 -44.5z" />
    <glyph glyph-name="h" unicode="h" horiz-adv-x="486" 
d="M328 0v330q0 43 -19 60t-51 17t-58.5 -21t-40.5 -46v-340h-100v667h100v-249q20 29 58 53t83 24q66 0 96.5 -33.5t30.5 -96.5v-365h-99z" />
    <glyph glyph-name="i" unicode="i" horiz-adv-x="217" 
d="M109 544q-26 0 -44.5 18t-18.5 44t18.5 44t44.5 18t44 -18t18 -44t-18 -44t-44 -18zM59 0v483h99v-483h-99z" />
    <glyph glyph-name="j" unicode="j" horiz-adv-x="217" 
d="M109 544q-26 0 -44.5 18t-18.5 44t18.5 44t44.5 18t44 -18t18 -44t-18 -44t-44 -18zM17 -196q-29 0 -48.5 7.5t-36.5 23.5l28 77q9 -10 20 -16t27 -6q23 0 37.5 16t14.5 53v524h99v-524q0 -75 -34.5 -115t-106.5 -40z" />
    <glyph glyph-name="k" unicode="k" horiz-adv-x="457" 
d="M332 0l-115 202l-59 -78v-124h-99v667h99v-421l172 237h116l-160 -217l163 -266h-117z" />
    <glyph glyph-name="l" unicode="l" horiz-adv-x="217" 
d="M59 0v667h99v-667h-99z" />
    <glyph glyph-name="m" unicode="m" horiz-adv-x="723" 
d="M565 0v335q0 35 -14.5 53.5t-46.5 18.5q-30 0 -55 -21t-38 -46v-340h-99v335q0 34 -14.5 53t-46.5 19q-30 0 -54.5 -21.5t-38.5 -45.5v-340h-99v483h99v-65q7 12 21 26t31.5 25t38.5 18.5t44 7.5q47 0 76 -22.5t37 -62.5q9 16 23.5 31.5t33 27.5t39.5 19t44 7
q55 0 86.5 -30.5t31.5 -96.5v-368h-99z" />
    <glyph glyph-name="n" unicode="n" horiz-adv-x="486" 
d="M327 0v329q0 43 -18.5 60.5t-50.5 17.5t-59 -21t-41 -46v-340h-99v483h99v-65q10 15 25 28.5t33.5 24.5t39.5 17.5t44 6.5q66 0 96.5 -34.5t30.5 -97.5v-363h-100z" />
    <glyph glyph-name="o" unicode="o" horiz-adv-x="490" 
d="M245 -12q-51 0 -90.5 20.5t-66 55.5t-40 81t-13.5 97t13.5 97t40 80.5t66 55t90.5 20.5t90.5 -20.5t66 -55t40 -80.5t13.5 -97t-13.5 -97t-40 -81t-66 -55.5t-90.5 -20.5zM245 76q28 0 48 13.5t33 36.5t19 53t6 63t-6 62.5t-19 52.5t-33 36.5t-48 13.5t-48 -13.5
t-33 -36.5t-19.5 -52.5t-6.5 -62.5t6.5 -63t19.5 -53t33 -36.5t48 -13.5z" />
    <glyph glyph-name="p" unicode="p" horiz-adv-x="494" 
d="M283 -12q-36 0 -69 19t-56 58v-249h-99v667h99v-64q22 36 55 56t70 20q41 0 74 -17.5t56 -50.5t35 -80t12 -105t-12 -105t-35 -80t-56 -51t-74 -18zM254 76q26 0 45.5 12.5t32 35t19 53t6.5 65.5t-6.5 65t-19 52.5t-32 35t-45.5 12.5q-29 0 -55.5 -19t-40.5 -46v-200
q13 -26 40 -46t56 -20z" />
    <glyph glyph-name="q" unicode="q" horiz-adv-x="494" 
d="M241 76q29 0 55.5 20t39.5 46v200q-14 27 -40 46t-55 19q-26 0 -45.5 -12.5t-32.5 -35t-19.5 -52.5t-6.5 -65t6.5 -65.5t19.5 -53t32.5 -35t45.5 -12.5zM211 -12q-41 0 -74 18t-56 51t-35 80t-12 105t12 105t35 80t56 50.5t74 17.5q37 0 70 -20t55 -56v64h99v-667h-99
v249q-23 -39 -56 -58t-69 -19z" />
    <glyph glyph-name="r" unicode="r" horiz-adv-x="308" 
d="M59 0v483h99v-71q22 35 57.5 58.5t76.5 23.5v-99q-12 3 -26 3q-30 0 -61.5 -20t-46.5 -47v-331h-99z" />
    <glyph glyph-name="s" unicode="s" horiz-adv-x="402" 
d="M198 -12q-56 0 -101 18t-76 51l45 70q22 -25 57 -42.5t73 -17.5t59.5 17t21.5 46q0 23 -18 37t-44.5 24.5t-57.5 21.5t-57.5 28.5t-44.5 44.5t-18 71q0 28 11 53t32.5 44t52.5 30t71 11q51 0 91 -17t69 -45l-43 -68q-17 21 -48 36t-68 15q-34 0 -54 -16.5t-20 -39.5
q0 -22 18 -34.5t45 -22.5l58 -22q31 -11 58 -29t45 -46.5t18 -72.5q0 -32 -12 -58.5t-35 -45.5t-55.5 -30t-72.5 -11z" />
    <glyph glyph-name="t" unicode="t" horiz-adv-x="282" 
d="M188 -12q-57 0 -84 30t-27 90v288h-63v87h63v132h99v-132h80v-87h-80v-267q0 -25 9 -39t28 -14q12 0 22.5 4.5t15.5 11.5l24 -76q-14 -12 -35 -20t-52 -8z" />
    <glyph glyph-name="u" unicode="u" horiz-adv-x="486" 
d="M327 0v63q-10 -15 -25 -28.5t-33 -24t-39 -16.5t-44 -6q-66 0 -96.5 33.5t-30.5 96.5v365h99v-330q0 -43 19 -60t51 -17t58.5 20t40.5 45v342h99v-483h-99z" />
    <glyph glyph-name="v" unicode="v" horiz-adv-x="432" 
d="M162 0l-161 483h107l108 -364l109 364h106l-162 -483h-107z" />
    <glyph glyph-name="w" unicode="w" horiz-adv-x="669" 
d="M428 0l-94 354l-93 -354h-104l-130 483h103l85 -352l92 352h92l95 -352l84 352h104l-130 -483h-104z" />
    <glyph glyph-name="x" unicode="x" horiz-adv-x="426" 
d="M311 0l-98 175l-98 -175h-109l145 246l-137 237h109l90 -166l90 166h109l-138 -237l146 -246h-109z" />
    <glyph glyph-name="y" unicode="y" horiz-adv-x="432" 
d="M58 -101q6 -4 15 -5.5t16 -1.5q20 0 33.5 9t21.5 32l21 58l-164 492h107l108 -363l109 363h106l-192 -573q-21 -61 -56 -83t-86 -23q-11 0 -28 2t-26 5z" />
    <glyph glyph-name="z" unicode="z" horiz-adv-x="400" 
d="M38 0v76l195 320h-195v87h320v-73l-196 -323h200v-87h-324z" />
    <glyph glyph-name="braceleft" unicode="{" horiz-adv-x="244" 
d="M182 -190q-24 0 -46.5 9t-40 26t-28 41t-10.5 54v206q0 28 -13 48t-39 20v60q26 0 39 20t13 48v206q0 30 10.5 54t28 41t40 26t46.5 9h45v-69h-45q-21 0 -36 -16.5t-15 -44.5v-215q0 -32 -10.5 -55t-35.5 -34q25 -11 35.5 -34t10.5 -55v-215q0 -27 15 -44t36 -17h45v-69
h-45z" />
    <glyph glyph-name="bar" unicode="|" horiz-adv-x="196" 
d="M64 -20v707h69v-707h-69z" />
    <glyph glyph-name="braceright" unicode="}" horiz-adv-x="244" 
d="M17 -121h45q21 0 36 17t15 44v215q0 32 10.5 55t35.5 34q-25 11 -35.5 34t-10.5 55v215q0 28 -15 44.5t-36 16.5h-45v69h45q24 0 46.5 -9t40 -26t28 -41t10.5 -54v-206q0 -28 13 -48t39 -20v-60q-26 0 -39 -20t-13 -48v-206q0 -30 -10.5 -54t-28 -41t-40 -26t-46.5 -9
h-45v69z" />
    <glyph glyph-name="asciitilde" unicode="~" horiz-adv-x="458" 
d="M431 660q-3 -41 -9.5 -84t-20.5 -78t-38 -57.5t-62 -22.5q-29 0 -46.5 13.5t-28.5 34t-18 44.5l-13 45q-6 20 -14.5 33.5t-23.5 13.5q-29 0 -40.5 -48.5t-19.5 -136.5l-70 8q3 41 9 83.5t20.5 77.5t38.5 57.5t62 22.5q29 0 47 -13.5t29 -34.5t17.5 -44.5t13 -44.5
t14.5 -34.5t23 -13.5q29 0 41 48t19 138z" />
    <glyph glyph-name="exclamdown" unicode="&#xa1;" horiz-adv-x="242" 
d="M78 282h85l19 -466h-122zM54 426q0 28 19.5 47.5t47.5 19.5q27 0 47 -19.5t20 -47.5q0 -27 -20 -46.5t-47 -19.5q-28 0 -47.5 19.5t-19.5 46.5z" />
    <glyph glyph-name="cent" unicode="&#xa2;" horiz-adv-x="417" 
d="M201 -7q-78 17 -122 84.5t-44 164.5q0 48 11.5 89.5t33 73.5t52 54t69.5 31v75h74v-72q42 -5 71.5 -22.5t48.5 -40.5l-50 -68q-29 38 -70 44v-329q39 6 70 44l50 -68q-19 -24 -48.5 -41t-71.5 -22v-90h-74v93zM138 242q0 -50 16 -89.5t47 -59.5v297q-31 -20 -47 -59.5
t-16 -88.5z" />
    <glyph glyph-name="sterling" unicode="&#xa3;" horiz-adv-x="472" 
d="M26 338h69q-18 29 -33 61.5t-15 78.5q0 43 17 79.5t45.5 63t65.5 41.5t78 15q67 0 116 -30.5t70 -90.5l-88 -45q-11 32 -33 53.5t-57 21.5q-38 0 -66.5 -29t-28.5 -81q0 -24 4.5 -43t12 -35t16.5 -31l18 -29h111v-67h-85q3 -17 3 -34q0 -38 -19 -72.5t-46 -55.5
q11 5 22.5 7t21.5 2q19 0 34 -5t28 -11t26 -11t30 -5q28 0 48.5 10.5t30.5 24.5l39 -88q-17 -19 -49.5 -32.5t-75.5 -13.5q-29 0 -49 7t-36.5 15t-32.5 15t-37 7q-22 0 -47.5 -10.5t-52.5 -27.5l-35 78q46 25 73.5 62t27.5 78q0 17 -4 31.5t-9 28.5h-108v67z" />
    <glyph glyph-name="currency" unicode="&#xa4;" horiz-adv-x="567" 
d="M331 -12q-52 0 -95.5 17.5t-77 49.5t-56.5 76.5t-34 99.5h-47v65h38q-1 9 -1 18v19v20q0 10 1 20h-38v64h47q11 54 34 98.5t57 76t77 49t95 17.5q44 0 77.5 -12.5t59 -33t44 -47t31.5 -54.5l-91 -41q-18 40 -48.5 65t-72.5 25q-54 0 -92.5 -38.5t-55.5 -104.5h191v-64
h-201q-1 -10 -1.5 -19.5t-0.5 -20.5v-19q0 -9 1 -18h202v-65h-191q17 -66 55 -105.5t93 -39.5q44 0 74.5 28t46.5 70l92 -40q-13 -29 -31.5 -57t-44 -50t-59.5 -35.5t-78 -13.5z" />
    <glyph glyph-name="yen" unicode="&#xa5;" horiz-adv-x="524" 
d="M207 0v119h-184v64h184v95h-184v65h149l-172 324h122l140 -285l140 285h122l-173 -324h149v-65h-183v-95h183v-64h-183v-119h-110z" />
    <glyph glyph-name="brokenbar" unicode="&#xa6;" horiz-adv-x="196" 
d="M64 -20v316h69v-316h-69zM64 371v316h69v-316h-69z" />
    <glyph glyph-name="section" unicode="&#xa7;" horiz-adv-x="406" 
d="M373 315q0 -38 -20 -71t-60 -53q38 -22 59 -51.5t21 -74.5q0 -33 -13 -59.5t-36.5 -46t-55.5 -30t-70 -10.5q-62 0 -104 19.5t-72 50.5l44 65q18 -21 52 -41.5t76 -20.5q38 0 60.5 19t22.5 49q0 26 -18 41.5t-44.5 27.5t-57.5 23t-57.5 28t-44.5 43.5t-18 69.5
q0 45 27.5 76.5t66.5 43.5q-48 24 -71 55.5t-23 75.5q0 28 12 52.5t33.5 42.5t51.5 28t66 10q61 0 99.5 -18.5t63.5 -44.5l-42 -60q-24 27 -53.5 39.5t-60.5 12.5q-35 0 -55.5 -17t-20.5 -45q0 -24 18 -38t45 -25t58 -22t58 -28.5t45 -45t18 -70.5zM280 296q0 19 -6.5 33
t-17.5 24t-24.5 17.5t-26.5 12.5q-45 -11 -60.5 -31.5t-15.5 -44.5q0 -34 25.5 -52.5t67.5 -35.5q58 27 58 77z" />
    <glyph glyph-name="dieresis" unicode="&#xa8;" horiz-adv-x="278" 
d="M287 607q0 -23 -17 -39.5t-40 -16.5t-39.5 16.5t-16.5 39.5t16.5 39.5t39.5 16.5t40 -16.5t17 -39.5zM104 607q0 -23 -16.5 -39.5t-39.5 -16.5t-39.5 16.5t-16.5 39.5t16.5 39.5t39.5 16.5t39.5 -16.5t16.5 -39.5z" />
    <glyph glyph-name="copyright" unicode="&#xa9;" horiz-adv-x="778" 
d="M734 334q0 -71 -27 -134t-74 -110t-109.5 -74t-134.5 -27q-71 0 -134 27t-110 74t-74 110t-27 134q0 72 27 134.5t74 109.5t110 74t134 27q72 0 134.5 -27t109.5 -74t74 -109.5t27 -134.5zM701 334q0 64 -24.5 121t-67 99.5t-99.5 67t-121 24.5t-121 -24.5t-99.5 -67
t-67 -99.5t-24.5 -121t24.5 -121t67 -99.5t99.5 -67t121 -24.5t121 24.5t99.5 67t67 99.5t24.5 121zM540 189q-27 -32 -63.5 -49.5t-83.5 -17.5q-43 0 -81 16.5t-66 45t-44.5 67.5t-16.5 84q0 46 16.5 85t44.5 67t66 44t81 16q47 0 83.5 -17.5t62.5 -48.5l-27 -28
q-20 26 -52 42t-67 16q-34 0 -64 -12.5t-53 -36t-36.5 -56t-13.5 -71.5q0 -38 13.5 -70.5t36.5 -56t53 -37t64 -13.5q36 0 67.5 16t51.5 42z" />
    <glyph glyph-name="ordfeminine" unicode="&#xaa;" horiz-adv-x="338" 
d="M217 326v33q-14 -17 -35.5 -29t-52.5 -12q-20 0 -38 7t-31.5 20t-22 32.5t-8.5 44.5q0 50 30.5 76t69.5 26q31 0 52.5 -10.5t35.5 -27.5v45q0 29 -17.5 44.5t-45.5 15.5q-20 0 -41.5 -9.5t-40.5 -30.5l-29 49q26 25 59 36.5t65 11.5q26 0 48.5 -6.5t39 -20t26 -35.5
t9.5 -53v-207h-73zM157 366q18 0 34 8t26 25v47q-10 17 -26 25t-34 8q-25 0 -40 -15.5t-15 -40.5q0 -26 15 -41.5t40 -15.5z" />
    <glyph glyph-name="guillemotleft" unicode="&#xab;" horiz-adv-x="423" 
d="M307 63l-125 180l125 177h86l-125 -177l125 -180h-86zM155 63l-125 180l125 177h87l-125 -177l125 -180h-87z" />
    <glyph glyph-name="logicalnot" unicode="&#xac;" horiz-adv-x="445" 
d="M412 206h-67v191h-316v65h383v-256z" />
    <glyph glyph-name="registered" unicode="&#xae;" horiz-adv-x="494" 
d="M459 465q0 -44 -16.5 -82.5t-45 -67.5t-67.5 -45.5t-83 -16.5t-82.5 16.5t-67.5 45.5t-45.5 67.5t-16.5 82.5t16.5 83t45.5 67.5t67.5 45t82.5 16.5t83 -16.5t67.5 -45t45 -67.5t16.5 -83zM429 465q0 38 -14 71.5t-39 58t-58 38.5t-71 14t-71 -14t-58 -38.5t-39 -58
t-14 -71.5t14 -71t39 -57.5t58 -39t71 -14.5t71 14.5t58 39t39 57.5t14 71zM305 343l-63 96h-43v-96h-33v243h99q31 0 54.5 -20t23.5 -54q0 -20 -7.5 -34t-18 -22.5t-21 -12t-15.5 -3.5l65 -97h-41zM309 512q0 20 -14 32.5t-30 12.5h-66v-88h66q16 0 30 12t14 31z" />
    <glyph glyph-name="macron" unicode="&#xaf;" horiz-adv-x="309" 
d="M0 591v59h309v-59h-309z" />
    <glyph glyph-name="degree" unicode="&#xb0;" horiz-adv-x="300" 
d="M278 548q0 -26 -10 -49.5t-27.5 -40.5t-41 -27t-50.5 -10q-26 0 -49.5 10t-40.5 27t-27 40.5t-10 49.5q0 27 10 50.5t27 41t40.5 27.5t49.5 10q27 0 50.5 -10t41 -27.5t27.5 -41t10 -50.5zM220 548q0 29 -21 50t-50 21t-49 -21t-20 -50t20 -49t49 -20t50 20t21 49z" />
    <glyph glyph-name="plusminus" unicode="&#xb1;" horiz-adv-x="441" 
d="M256 315v-179h-71v179h-156v64h156v172h71v-172h156v-64h-156zM29 16v65h383v-65h-383z" />
    <glyph glyph-name="uni00B2" unicode="&#xb2;" horiz-adv-x="338" 
d="M39 421v57l92 85q37 35 58.5 60.5t30.5 44.5t9 38q0 29 -18.5 44t-44.5 15q-29 0 -53 -14t-38 -36l-44 47q25 32 60.5 48.5t77.5 16.5q29 0 54 -7.5t43.5 -22.5t29 -37t10.5 -50q0 -24 -10 -48t-30.5 -51t-51 -58t-72.5 -70h166v-62h-269z" />
    <glyph glyph-name="uni00B3" unicode="&#xb3;" horiz-adv-x="338" 
d="M309 531q0 -52 -38 -84.5t-103 -32.5q-50 0 -86 18.5t-55 46.5l45 47q17 -23 41.5 -36.5t51.5 -13.5q34 0 51 16.5t17 42.5q0 35 -23 47.5t-54 12.5h-21q-9 0 -14 -1v62q5 -1 14 -1h19q33 0 53.5 13t20.5 42q0 28 -18.5 41.5t-47.5 13.5q-54 0 -88 -45l-42 43
q22 29 56.5 46.5t79.5 17.5q61 0 98 -27.5t37 -80.5q0 -37 -24 -61.5t-55 -29.5q15 -2 30 -9.5t27.5 -20t20 -29.5t7.5 -38z" />
    <glyph glyph-name="acute" unicode="&#xb4;" horiz-adv-x="203" 
d="M68 556h-68l110 144h93z" />
    <glyph glyph-name="uni00B5" unicode="&#xb5;" horiz-adv-x="486" 
d="M59 -184v667h99v-330q0 -43 19 -60.5t51 -17.5t58.5 20.5t40.5 45.5v342h99v-483h-99v63q-10 -15 -25 -28.5t-33 -24t-39 -16.5t-44 -6q-8 0 -15 0.5t-13 1.5v-174h-99z" />
    <glyph glyph-name="paragraph" unicode="&#xb6;" horiz-adv-x="449" 
d="M336 -100v714h-84v-714h-53v423q-36 0 -67 13.5t-54.5 37t-37 54.5t-13.5 67t13.5 67t37 54.5t54.5 37t67 13.5h190v-767h-53z" />
    <glyph glyph-name="periodcentered" unicode="&#xb7;" horiz-adv-x="242" 
d="M188 245q0 -28 -19.5 -47.5t-47.5 -19.5t-47.5 19.5t-19.5 47.5q0 27 19.5 46.5t47.5 19.5t47.5 -19.5t19.5 -46.5z" />
    <glyph glyph-name="cedilla" unicode="&#xb8;" horiz-adv-x="195" 
d="M94 -193q-29 0 -54 9t-40 22l21 43q36 -28 71 -28q20 0 35 10t15 27q0 31 -30 31q-18 0 -30 -15l-39 22l30 83h53l-25 -64q13 10 32 10q26 0 44 -18.5t18 -49.5q0 -38 -29 -60t-72 -22z" />
    <glyph glyph-name="uni00B9" unicode="&#xb9;" horiz-adv-x="247" 
d="M117 421v301l-62 -64l-44 46l116 117h67v-400h-77z" />
    <glyph glyph-name="ordmasculine" unicode="&#xba;" horiz-adv-x="354" 
d="M176 318q-35 0 -62 13.5t-45.5 36t-28 52.5t-9.5 63t9.5 63t28 52.5t45.5 36t62 13.5q36 0 63 -13.5t46 -36t28.5 -52.5t9.5 -63t-9.5 -63t-28.5 -52.5t-46 -36t-63 -13.5zM176 378q37 0 54 30t17 75t-17 74.5t-54 29.5q-35 0 -52 -29.5t-17 -74.5t17 -75t52 -30z" />
    <glyph glyph-name="guillemotright" unicode="&#xbb;" horiz-adv-x="423" 
d="M117 63h-87l125 180l-125 177h87l125 -177zM268 63h-86l125 180l-125 177h86l125 -177z" />
    <glyph glyph-name="onequarter" unicode="&#xbc;" horiz-adv-x="712" 
d="M192 0h-56l351 667h57zM646 94v-94h-77v94h-171v57l148 249h100v-245h44v-61h-44zM569 325l-100 -170h100v170zM117 267v301l-62 -64l-44 46l116 117h67v-400h-77z" />
    <glyph glyph-name="onehalf" unicode="&#xbd;" horiz-adv-x="747" 
d="M192 0h-56l351 667h57zM448 0v57l92 85q37 35 58.5 60.5t30.5 44.5t9 38q0 29 -18.5 44t-44.5 15q-29 0 -53 -14t-38 -36l-44 47q25 32 60.5 48.5t77.5 16.5q29 0 54 -7.5t43.5 -22.5t29 -37t10.5 -50q0 -24 -10 -48t-30.5 -51t-51 -58t-72.5 -70h166v-62h-269zM117 267
v301l-62 -64l-44 46l116 117h67v-400h-77z" />
    <glyph glyph-name="threequarters" unicode="&#xbe;" horiz-adv-x="780" 
d="M259 0h-56l351 667h57zM713 94v-94h-77v94h-171v57l148 249h100v-245h44v-61h-44zM636 325l-100 -170h100v170zM309 377q0 -52 -38 -84.5t-103 -32.5q-50 0 -86 18.5t-55 46.5l45 47q17 -23 41.5 -36.5t51.5 -13.5q34 0 51 16.5t17 42.5q0 35 -23 47.5t-54 12.5h-21
q-9 0 -14 -1v62q5 -1 14 -1h19q33 0 53.5 13t20.5 42q0 28 -18.5 41.5t-47.5 13.5q-54 0 -88 -45l-42 43q22 29 56.5 46.5t79.5 17.5q61 0 98 -27.5t37 -80.5q0 -37 -24 -61.5t-55 -29.5q15 -2 30 -9.5t27.5 -20t20 -29.5t7.5 -38z" />
    <glyph glyph-name="questiondown" unicode="&#xbf;" horiz-adv-x="339" 
d="M233 287q30 -33 30 -85q0 -29 -9.5 -51.5t-24 -40t-31.5 -33t-31.5 -31t-24 -33t-9.5 -40.5q0 -28 20.5 -50t59.5 -22q33 0 56.5 13.5t43.5 38.5l56 -70q-32 -38 -76.5 -58.5t-97.5 -20.5q-40 0 -72 11.5t-54.5 31.5t-34.5 47.5t-12 59.5q0 34 11 59.5t27 46.5t35.5 38
t35.5 34t27 35.5t11 41.5q0 13 -5.5 26t-14.5 21zM196 493q28 0 47.5 -19.5t19.5 -47.5q0 -27 -19.5 -46.5t-47.5 -19.5q-27 0 -47 19.5t-20 46.5q0 28 20 47.5t47 19.5z" />
    <glyph glyph-name="Agrave" unicode="&#xc0;" 
d="M269 728l-135 144h92l111 -144h-68zM416 0l-37 132h-220l-37 -132h-119l200 667h132l200 -667h-119zM269 549l-88 -319h176z" />
    <glyph glyph-name="Aacute" unicode="&#xc1;" 
d="M271 728h-68l110 144h93zM416 0l-37 132h-220l-37 -132h-119l200 667h132l200 -667h-119zM269 549l-88 -319h176z" />
    <glyph glyph-name="Acircumflex" unicode="&#xc2;" 
d="M336 728l-67 97l-64 -97h-60l78 144h92l81 -144h-60zM416 0l-37 132h-220l-37 -132h-119l200 667h132l200 -667h-119zM269 549l-88 -319h176z" />
    <glyph glyph-name="Atilde" unicode="&#xc3;" 
d="M320 726q-23 0 -36.5 12.5t-23.5 27.5l-19 28q-8 13 -22 13q-16 0 -26.5 -18t-10.5 -57h-54q0 60 23.5 97t68.5 37q23 0 36.5 -12.5t23 -28t18.5 -28t23 -12.5q16 0 26 18t10 57h54q0 -60 -23 -97t-68 -37zM416 0l-37 132h-220l-37 -132h-119l200 667h132l200 -667h-119z
M269 549l-88 -319h176z" />
    <glyph glyph-name="Adieresis" unicode="&#xc4;" 
d="M417 778q0 -23 -17 -39.5t-40 -16.5t-39.5 16.5t-16.5 39.5t16.5 39.5t39.5 16.5t40 -16.5t17 -39.5zM234 778q0 -23 -16.5 -39.5t-39.5 -16.5t-39.5 16.5t-16.5 39.5t16.5 39.5t39.5 16.5t39.5 -16.5t16.5 -39.5zM416 0l-37 132h-220l-37 -132h-119l200 667h132
l200 -667h-119zM269 549l-88 -319h176z" />
    <glyph glyph-name="Aring" unicode="&#xc5;" 
d="M270 692q-20 0 -37 7.5t-30 20.5t-20.5 30t-7.5 37q0 19 7.5 36.5t20.5 30t30 20t37 7.5q19 0 36 -7.5t29.5 -20t20 -30t7.5 -36.5q0 -20 -7.5 -37t-20 -30t-29.5 -20.5t-36 -7.5zM270 739q20 0 33 14t13 34t-13 33.5t-33 13.5t-34 -13.5t-14 -33.5t14 -34t34 -14zM416 0
l-37 132h-220l-37 -132h-119l200 667h132l200 -667h-119zM269 549l-88 -319h176z" />
    <glyph glyph-name="AE" unicode="&#xc6;" horiz-adv-x="774" 
d="M367 0v132h-184l-60 -132h-119l317 667h411v-97h-255v-181h248v-97h-248v-195h255v-97h-365zM367 549l-145 -319h145v319z" />
    <glyph glyph-name="Ccedilla" unicode="&#xc7;" horiz-adv-x="549" 
d="M307 -189q-29 0 -54 9t-40 22l21 43q36 -28 71 -28q20 0 35 10t15 27q0 31 -30 31q-18 0 -30 -15l-39 22l21 59q-56 7 -100 35t-74.5 73t-47 104.5t-16.5 129.5q0 75 19 138.5t54.5 109.5t86 71.5t113.5 25.5q44 0 77.5 -12.5t59 -33t44 -47t31.5 -54.5l-91 -41
q-18 40 -48.5 65t-72.5 25q-37 0 -66.5 -18.5t-50.5 -51.5t-32 -78t-11 -99t11 -99t32 -78t50.5 -51.5t66.5 -18.5q44 0 74.5 28t46.5 70l92 -40q-13 -28 -30 -55t-40.5 -48t-55 -35t-71.5 -17l-14 -38q13 10 32 10q26 0 44 -18.5t18 -49.5q0 -38 -29 -60t-72 -22z" />
    <glyph glyph-name="Egrave" unicode="&#xc8;" horiz-adv-x="473" 
d="M247 728l-135 144h92l111 -144h-68zM64 0v667h366v-97h-256v-181h249v-97h-249v-195h256v-97h-366z" />
    <glyph glyph-name="Eacute" unicode="&#xc9;" horiz-adv-x="473" 
d="M250 728h-68l110 144h93zM64 0v667h366v-97h-256v-181h249v-97h-249v-195h256v-97h-366z" />
    <glyph glyph-name="Ecircumflex" unicode="&#xca;" horiz-adv-x="473" 
d="M313 728l-67 97l-64 -97h-60l78 144h92l81 -144h-60zM64 0v667h366v-97h-256v-181h249v-97h-249v-195h256v-97h-366z" />
    <glyph glyph-name="Edieresis" unicode="&#xcb;" horiz-adv-x="473" 
d="M396 778q0 -23 -17 -39.5t-40 -16.5t-39.5 16.5t-16.5 39.5t16.5 39.5t39.5 16.5t40 -16.5t17 -39.5zM213 778q0 -23 -16.5 -39.5t-39.5 -16.5t-39.5 16.5t-16.5 39.5t16.5 39.5t39.5 16.5t39.5 -16.5t16.5 -39.5zM64 0v667h366v-97h-256v-181h249v-97h-249v-195h256v-97
h-366z" />
    <glyph glyph-name="Igrave" unicode="&#xcc;" horiz-adv-x="238" 
d="M118 728l-135 144h92l111 -144h-68zM64 0v667h110v-667h-110z" />
    <glyph glyph-name="Iacute" unicode="&#xcd;" horiz-adv-x="238" 
d="M122 728h-68l110 144h93zM64 0v667h110v-667h-110z" />
    <glyph glyph-name="Icircumflex" unicode="&#xce;" horiz-adv-x="238" 
d="M185 728l-67 97l-64 -97h-60l78 144h92l81 -144h-60zM64 0v667h110v-667h-110z" />
    <glyph glyph-name="Idieresis" unicode="&#xcf;" horiz-adv-x="238" 
d="M268 778q0 -23 -17 -39.5t-40 -16.5t-39.5 16.5t-16.5 39.5t16.5 39.5t39.5 16.5t40 -16.5t17 -39.5zM85 778q0 -23 -16.5 -39.5t-39.5 -16.5t-39.5 16.5t-16.5 39.5t16.5 39.5t39.5 16.5t39.5 -16.5t16.5 -39.5zM64 0v667h110v-667h-110z" />
    <glyph glyph-name="Eth" unicode="&#xd0;" horiz-adv-x="608" 
d="M88 0v289h-74v80h74v298h199q68 0 120.5 -25t88.5 -70t54.5 -106t18.5 -133q0 -73 -18.5 -134t-54 -105.5t-88 -69t-120.5 -24.5h-200zM198 289v-192h89q41 0 72.5 17.5t53 49t32.5 74.5t11 95q0 53 -10.5 96.5t-32 75t-53 48.5t-73.5 17h-89v-201h116v-80h-116z" />
    <glyph glyph-name="Ntilde" unicode="&#xd1;" horiz-adv-x="594" 
d="M346 726q-23 0 -36.5 12.5t-23.5 27.5l-19 28q-8 13 -22 13q-16 0 -26.5 -18t-10.5 -57h-54q0 60 23.5 97t68.5 37q23 0 36.5 -12.5t23 -28t18.5 -28t23 -12.5q16 0 26 18t10 57h54q0 -60 -23 -97t-68 -37zM424 0l-250 450v-450h-110v667h112l243 -437v437h111v-667h-106
z" />
    <glyph glyph-name="Ograve" unicode="&#xd2;" horiz-adv-x="615" 
d="M308 728l-135 144h92l111 -144h-68zM307 -12q-64 0 -113.5 26.5t-84 72.5t-52.5 109t-18 137q0 73 18 136.5t52.5 109.5t84 72.5t113.5 26.5t114 -26.5t84.5 -72.5t52.5 -109.5t18 -136.5q0 -74 -18 -137t-52.5 -109t-84.5 -72.5t-114 -26.5zM307 86q37 0 66 19t49 52.5
t30 78.5t10 97t-10 97.5t-30 78.5t-49 52t-66 19q-38 0 -66.5 -19t-48.5 -52t-30 -78.5t-10 -97.5t10 -97t30 -78.5t48.5 -52.5t66.5 -19z" />
    <glyph glyph-name="Oacute" unicode="&#xd3;" horiz-adv-x="615" 
d="M310 728h-68l110 144h93zM307 -12q-64 0 -113.5 26.5t-84 72.5t-52.5 109t-18 137q0 73 18 136.5t52.5 109.5t84 72.5t113.5 26.5t114 -26.5t84.5 -72.5t52.5 -109.5t18 -136.5q0 -74 -18 -137t-52.5 -109t-84.5 -72.5t-114 -26.5zM307 86q37 0 66 19t49 52.5t30 78.5
t10 97t-10 97.5t-30 78.5t-49 52t-66 19q-38 0 -66.5 -19t-48.5 -52t-30 -78.5t-10 -97.5t10 -97t30 -78.5t48.5 -52.5t66.5 -19z" />
    <glyph glyph-name="Ocircumflex" unicode="&#xd4;" horiz-adv-x="615" 
d="M374 728l-67 97l-64 -97h-60l78 144h92l81 -144h-60zM307 -12q-64 0 -113.5 26.5t-84 72.5t-52.5 109t-18 137q0 73 18 136.5t52.5 109.5t84 72.5t113.5 26.5t114 -26.5t84.5 -72.5t52.5 -109.5t18 -136.5q0 -74 -18 -137t-52.5 -109t-84.5 -72.5t-114 -26.5zM307 86
q37 0 66 19t49 52.5t30 78.5t10 97t-10 97.5t-30 78.5t-49 52t-66 19q-38 0 -66.5 -19t-48.5 -52t-30 -78.5t-10 -97.5t10 -97t30 -78.5t48.5 -52.5t66.5 -19z" />
    <glyph glyph-name="Otilde" unicode="&#xd5;" horiz-adv-x="615" 
d="M358 726q-23 0 -36.5 12.5t-23.5 27.5l-19 28q-8 13 -22 13q-16 0 -26.5 -18t-10.5 -57h-54q0 60 23.5 97t68.5 37q23 0 36.5 -12.5t23 -28t18.5 -28t23 -12.5q16 0 26 18t10 57h54q0 -60 -23 -97t-68 -37zM307 -12q-64 0 -113.5 26.5t-84 72.5t-52.5 109t-18 137
q0 73 18 136.5t52.5 109.5t84 72.5t113.5 26.5t114 -26.5t84.5 -72.5t52.5 -109.5t18 -136.5q0 -74 -18 -137t-52.5 -109t-84.5 -72.5t-114 -26.5zM307 86q37 0 66 19t49 52.5t30 78.5t10 97t-10 97.5t-30 78.5t-49 52t-66 19q-38 0 -66.5 -19t-48.5 -52t-30 -78.5
t-10 -97.5t10 -97t30 -78.5t48.5 -52.5t66.5 -19z" />
    <glyph glyph-name="Odieresis" unicode="&#xd6;" horiz-adv-x="615" 
d="M456 778q0 -23 -17 -39.5t-40 -16.5t-39.5 16.5t-16.5 39.5t16.5 39.5t39.5 16.5t40 -16.5t17 -39.5zM273 778q0 -23 -16.5 -39.5t-39.5 -16.5t-39.5 16.5t-16.5 39.5t16.5 39.5t39.5 16.5t39.5 -16.5t16.5 -39.5zM307 -12q-64 0 -113.5 26.5t-84 72.5t-52.5 109t-18 137
q0 73 18 136.5t52.5 109.5t84 72.5t113.5 26.5t114 -26.5t84.5 -72.5t52.5 -109.5t18 -136.5q0 -74 -18 -137t-52.5 -109t-84.5 -72.5t-114 -26.5zM307 86q37 0 66 19t49 52.5t30 78.5t10 97t-10 97.5t-30 78.5t-49 52t-66 19q-38 0 -66.5 -19t-48.5 -52t-30 -78.5
t-10 -97.5t10 -97t30 -78.5t48.5 -52.5t66.5 -19z" />
    <glyph glyph-name="multiply" unicode="&#xd7;" horiz-adv-x="441" 
d="M221 289l-124 -125l-46 46l124 124l-124 124l46 46l124 -125l124 125l45 -46l-123 -124l123 -124l-45 -46z" />
    <glyph glyph-name="Oslash" unicode="&#xd8;" horiz-adv-x="615" 
d="M307 -12q-42 0 -77.5 11.5t-65.5 32.5l-18 -32h-75l45 78q-38 47 -57.5 112t-19.5 143q0 73 18 136.5t52.5 109.5t84 72.5t113.5 26.5q40 0 74.5 -10.5t63.5 -30.5l18 30h75l-44 -74q40 -48 61 -114.5t21 -145.5q0 -74 -18 -137t-52.5 -109t-84.5 -72.5t-114 -26.5z
M307 86q37 0 66 19t49 52.5t30 78.5t10 97q0 91 -29 155l-215 -365q35 -37 89 -37zM152 333q0 -88 27 -149l213 362q-36 34 -85 34q-38 0 -66.5 -19t-48.5 -52t-30 -78.5t-10 -97.5z" />
    <glyph glyph-name="Ugrave" unicode="&#xd9;" horiz-adv-x="593" 
d="M297 728l-135 144h92l111 -144h-68zM297 -12q-109 0 -171 61t-62 176v442h111v-443q0 -68 31.5 -103t90.5 -35q58 0 89.5 35t31.5 103v443h111v-442q0 -115 -62 -176t-170 -61z" />
    <glyph glyph-name="Uacute" unicode="&#xda;" horiz-adv-x="593" 
d="M299 728h-68l110 144h93zM297 -12q-109 0 -171 61t-62 176v442h111v-443q0 -68 31.5 -103t90.5 -35q58 0 89.5 35t31.5 103v443h111v-442q0 -115 -62 -176t-170 -61z" />
    <glyph glyph-name="Ucircumflex" unicode="&#xdb;" horiz-adv-x="593" 
d="M365 728l-67 97l-64 -97h-60l78 144h92l81 -144h-60zM297 -12q-109 0 -171 61t-62 176v442h111v-443q0 -68 31.5 -103t90.5 -35q58 0 89.5 35t31.5 103v443h111v-442q0 -115 -62 -176t-170 -61z" />
    <glyph glyph-name="Udieresis" unicode="&#xdc;" horiz-adv-x="593" 
d="M445 778q0 -23 -17 -39.5t-40 -16.5t-39.5 16.5t-16.5 39.5t16.5 39.5t39.5 16.5t40 -16.5t17 -39.5zM262 778q0 -23 -16.5 -39.5t-39.5 -16.5t-39.5 16.5t-16.5 39.5t16.5 39.5t39.5 16.5t39.5 -16.5t16.5 -39.5zM297 -12q-109 0 -171 61t-62 176v442h111v-443
q0 -68 31.5 -103t90.5 -35q58 0 89.5 35t31.5 103v443h111v-442q0 -115 -62 -176t-170 -61z" />
    <glyph glyph-name="Yacute" unicode="&#xdd;" horiz-adv-x="524" 
d="M267 728h-68l110 144h93zM207 0v278l-207 389h122l140 -285l140 285h122l-207 -389v-278h-110z" />
    <glyph glyph-name="Thorn" unicode="&#xde;" horiz-adv-x="515" 
d="M64 0v667h110v-114h117q49 0 86.5 -17t62 -45.5t37 -66t12.5 -79.5t-12.5 -79t-37.5 -65.5t-62 -45t-86 -16.5h-117v-139h-110zM278 236q45 0 71.5 30t26.5 79q0 50 -26.5 80.5t-71.5 30.5h-104v-220h104z" />
    <glyph glyph-name="germandbls" unicode="&#xdf;" horiz-adv-x="557" 
d="M542 134q0 -30 -11.5 -56.5t-33.5 -46.5t-53.5 -31.5t-70.5 -11.5q-60 0 -98 19.5t-68 50.5l41 70q17 -22 47 -41t69 -19q36 0 57 18t21 45q0 23 -16.5 37.5t-41 25.5t-53.5 22t-53.5 28t-41 43t-16.5 67q0 37 18 60.5t39 41.5l40 34q18 16 18 39q0 27 -24 43.5t-56 16.5
q-39 0 -66 -24t-27 -72v-493h-99v493q0 38 13.5 71.5t38 58.5t60 39.5t80.5 14.5q36 0 68.5 -10t57.5 -28t39.5 -43t14.5 -55q0 -41 -18.5 -65.5t-40.5 -42.5l-42 -34q-18 -16 -18 -40q0 -21 16.5 -34t41.5 -23l55 -21q29 -11 54.5 -28.5t42 -46t16.5 -72.5z" />
    <glyph glyph-name="agrave" unicode="&#xe0;" horiz-adv-x="469" 
d="M310 0v51q-22 -32 -56 -47.5t-72 -15.5q-29 0 -55.5 10.5t-47 31t-33 50.5t-12.5 68q0 39 12.5 69t33 49.5t47 29.5t55.5 10q38 0 72.5 -14.5t55.5 -45.5v72q0 44 -24.5 68t-69.5 24q-32 0 -62 -13.5t-59 -42.5l-39 70q37 38 83.5 54.5t94.5 16.5q38 0 70 -9t55.5 -29
t37 -51t13.5 -75v-331h-100zM218 57q28 0 53 12t39 38v79q-14 27 -39 39t-53 12q-38 0 -61 -25.5t-23 -64.5t23 -64.5t61 -25.5zM234 556l-135 144h92l111 -144h-68z" />
    <glyph glyph-name="aacute" unicode="&#xe1;" horiz-adv-x="469" 
d="M310 0v51q-22 -32 -56 -47.5t-72 -15.5q-29 0 -55.5 10.5t-47 31t-33 50.5t-12.5 68q0 39 12.5 69t33 49.5t47 29.5t55.5 10q38 0 72.5 -14.5t55.5 -45.5v72q0 44 -24.5 68t-69.5 24q-32 0 -62 -13.5t-59 -42.5l-39 70q37 38 83.5 54.5t94.5 16.5q38 0 70 -9t55.5 -29
t37 -51t13.5 -75v-331h-100zM218 57q28 0 53 12t39 38v79q-14 27 -39 39t-53 12q-38 0 -61 -25.5t-23 -64.5t23 -64.5t61 -25.5zM238 556h-68l110 144h93z" />
    <glyph glyph-name="acircumflex" unicode="&#xe2;" horiz-adv-x="469" 
d="M310 0v51q-22 -32 -56 -47.5t-72 -15.5q-29 0 -55.5 10.5t-47 31t-33 50.5t-12.5 68q0 39 12.5 69t33 49.5t47 29.5t55.5 10q38 0 72.5 -14.5t55.5 -45.5v72q0 44 -24.5 68t-69.5 24q-32 0 -62 -13.5t-59 -42.5l-39 70q37 38 83.5 54.5t94.5 16.5q38 0 70 -9t55.5 -29
t37 -51t13.5 -75v-331h-100zM218 57q28 0 53 12t39 38v79q-14 27 -39 39t-53 12q-38 0 -61 -25.5t-23 -64.5t23 -64.5t61 -25.5zM303 556l-67 97l-64 -97h-60l78 144h92l81 -144h-60z" />
    <glyph glyph-name="atilde" unicode="&#xe3;" horiz-adv-x="469" 
d="M310 0v51q-22 -32 -56 -47.5t-72 -15.5q-29 0 -55.5 10.5t-47 31t-33 50.5t-12.5 68q0 39 12.5 69t33 49.5t47 29.5t55.5 10q38 0 72.5 -14.5t55.5 -45.5v72q0 44 -24.5 68t-69.5 24q-32 0 -62 -13.5t-59 -42.5l-39 70q37 38 83.5 54.5t94.5 16.5q38 0 70 -9t55.5 -29
t37 -51t13.5 -75v-331h-100zM218 57q28 0 53 12t39 38v79q-14 27 -39 39t-53 12q-38 0 -61 -25.5t-23 -64.5t23 -64.5t61 -25.5zM286 554q-23 0 -36.5 12.5t-23.5 27.5l-18 28q-9 13 -23 13q-16 0 -26.5 -18t-10.5 -57h-54q0 60 23.5 97t68.5 37q23 0 36.5 -12.5t23 -28
t18.5 -28t23 -12.5q16 0 26 18t10 57h54q0 -60 -23 -97t-68 -37z" />
    <glyph glyph-name="adieresis" unicode="&#xe4;" horiz-adv-x="469" 
d="M310 0v51q-22 -32 -56 -47.5t-72 -15.5q-29 0 -55.5 10.5t-47 31t-33 50.5t-12.5 68q0 39 12.5 69t33 49.5t47 29.5t55.5 10q38 0 72.5 -14.5t55.5 -45.5v72q0 44 -24.5 68t-69.5 24q-32 0 -62 -13.5t-59 -42.5l-39 70q37 38 83.5 54.5t94.5 16.5q38 0 70 -9t55.5 -29
t37 -51t13.5 -75v-331h-100zM218 57q28 0 53 12t39 38v79q-14 27 -39 39t-53 12q-38 0 -61 -25.5t-23 -64.5t23 -64.5t61 -25.5zM382 607q0 -23 -17 -39.5t-40 -16.5t-39.5 16.5t-16.5 39.5t16.5 39.5t39.5 16.5t40 -16.5t17 -39.5zM199 607q0 -23 -16.5 -39.5t-39.5 -16.5
t-39.5 16.5t-16.5 39.5t16.5 39.5t39.5 16.5t39.5 -16.5t16.5 -39.5z" />
    <glyph glyph-name="aring" unicode="&#xe5;" horiz-adv-x="469" 
d="M310 0v51q-22 -32 -56 -47.5t-72 -15.5q-29 0 -55.5 10.5t-47 31t-33 50.5t-12.5 68q0 39 12.5 69t33 49.5t47 29.5t55.5 10q38 0 72.5 -14.5t55.5 -45.5v72q0 44 -24.5 68t-69.5 24q-32 0 -62 -13.5t-59 -42.5l-39 70q37 38 83.5 54.5t94.5 16.5q38 0 70 -9t55.5 -29
t37 -51t13.5 -75v-331h-100zM218 57q28 0 53 12t39 38v79q-14 27 -39 39t-53 12q-38 0 -61 -25.5t-23 -64.5t23 -64.5t61 -25.5zM235 544q-20 0 -37 7.5t-30 20.5t-20.5 30t-7.5 37q0 19 7.5 36.5t20.5 30t30 20t37 7.5q19 0 36 -7.5t29.5 -20t20 -30t7.5 -36.5
q0 -20 -7.5 -37t-20 -30t-29.5 -20.5t-36 -7.5zM235 591q20 0 33 14t13 34t-13 33.5t-33 13.5t-34 -13.5t-14 -33.5t14 -34t34 -14z" />
    <glyph glyph-name="ae" unicode="&#xe6;" horiz-adv-x="749" 
d="M408 209q2 -30 11 -55t25 -44t38.5 -29.5t52.5 -10.5q29 0 59 14t51 39l48 -61q-31 -35 -74.5 -54.5t-92.5 -19.5q-60 0 -103.5 25.5t-69.5 63.5q-11 -16 -27 -32t-36.5 -28.5t-46.5 -20.5t-57 -8q-30 0 -57.5 10.5t-48.5 30.5t-33.5 50t-12.5 68t11.5 67.5t32 50
t47.5 31t57 10.5q37 0 71.5 -14.5t56.5 -45.5v72q0 44 -24.5 68t-69.5 24q-32 0 -62 -13.5t-59 -42.5l-39 70q37 38 83.5 54.5t94.5 16.5q58 0 91.5 -21t48.5 -58q20 33 54.5 56t91.5 23q48 0 84.5 -20t61.5 -54.5t38 -81.5t13 -101v-29h-309zM621 280q0 22 -6 46t-18.5 43
t-33 31.5t-49.5 12.5q-28 0 -48 -12.5t-32.5 -32t-18.5 -43t-7 -45.5h213zM321 123q-4 11 -7.5 29.5t-3.5 32.5q-14 28 -39 40t-53 12q-37 0 -60.5 -24t-23.5 -66q0 -43 23.5 -66.5t60.5 -23.5q32 0 59 16t44 50z" />
    <glyph glyph-name="ccedilla" unicode="&#xe7;" horiz-adv-x="417" 
d="M247 -191q-29 0 -54 9t-40 22l21 43q36 -28 71 -28q20 0 35 10t15 27q0 31 -30 31q-18 0 -30 -15l-39 22l21 60q-42 6 -75.5 27t-57.5 54t-36.5 76.5t-12.5 94.5q0 54 15 100.5t42.5 80.5t67 53t87.5 19q54 0 90 -19t58 -46l-50 -68q-35 45 -87 45q-29 0 -51 -13
t-37.5 -35t-23.5 -52.5t-8 -64.5q0 -35 8 -65t23.5 -52.5t37.5 -35.5t51 -13q51 0 87 45l50 -68q-20 -25 -50.5 -42.5t-75.5 -21.5l-15 -40q13 10 32 10q26 0 44 -18.5t18 -49.5q0 -38 -29 -60t-72 -22z" />
    <glyph glyph-name="egrave" unicode="&#xe8;" horiz-adv-x="476" 
d="M253 -12q-50 0 -90 18.5t-68.5 52t-44 80.5t-15.5 103q0 52 14.5 98.5t41.5 80.5t65.5 54t86.5 20q49 0 87 -19.5t63 -54t38 -81.5t13 -101v-30h-308q1 -30 10 -55t25 -44t39 -29.5t53 -10.5q29 0 58.5 13t51.5 39l48 -60q-32 -35 -75 -54.5t-93 -19.5zM348 280
q0 22 -6 46t-18.5 43t-32.5 31.5t-49 12.5t-49 -12.5t-32.5 -32t-18.5 -43t-7 -45.5h213zM243 556l-135 144h92l111 -144h-68z" />
    <glyph glyph-name="eacute" unicode="&#xe9;" horiz-adv-x="476" 
d="M253 -12q-50 0 -90 18.5t-68.5 52t-44 80.5t-15.5 103q0 52 14.5 98.5t41.5 80.5t65.5 54t86.5 20q49 0 87 -19.5t63 -54t38 -81.5t13 -101v-30h-308q1 -30 10 -55t25 -44t39 -29.5t53 -10.5q29 0 58.5 13t51.5 39l48 -60q-32 -35 -75 -54.5t-93 -19.5zM348 280
q0 22 -6 46t-18.5 43t-32.5 31.5t-49 12.5t-49 -12.5t-32.5 -32t-18.5 -43t-7 -45.5h213zM247 556h-68l110 144h93z" />
    <glyph glyph-name="ecircumflex" unicode="&#xea;" horiz-adv-x="476" 
d="M253 -12q-50 0 -90 18.5t-68.5 52t-44 80.5t-15.5 103q0 52 14.5 98.5t41.5 80.5t65.5 54t86.5 20q49 0 87 -19.5t63 -54t38 -81.5t13 -101v-30h-308q1 -30 10 -55t25 -44t39 -29.5t53 -10.5q29 0 58.5 13t51.5 39l48 -60q-32 -35 -75 -54.5t-93 -19.5zM348 280
q0 22 -6 46t-18.5 43t-32.5 31.5t-49 12.5t-49 -12.5t-32.5 -32t-18.5 -43t-7 -45.5h213zM309 556l-67 97l-64 -97h-60l78 144h92l81 -144h-60z" />
    <glyph glyph-name="edieresis" unicode="&#xeb;" horiz-adv-x="476" 
d="M253 -12q-50 0 -90 18.5t-68.5 52t-44 80.5t-15.5 103q0 52 14.5 98.5t41.5 80.5t65.5 54t86.5 20q49 0 87 -19.5t63 -54t38 -81.5t13 -101v-30h-308q1 -30 10 -55t25 -44t39 -29.5t53 -10.5q29 0 58.5 13t51.5 39l48 -60q-32 -35 -75 -54.5t-93 -19.5zM348 280
q0 22 -6 46t-18.5 43t-32.5 31.5t-49 12.5t-49 -12.5t-32.5 -32t-18.5 -43t-7 -45.5h213zM390 607q0 -23 -17 -39.5t-40 -16.5t-39.5 16.5t-16.5 39.5t16.5 39.5t39.5 16.5t40 -16.5t17 -39.5zM207 607q0 -23 -16.5 -39.5t-39.5 -16.5t-39.5 16.5t-16.5 39.5t16.5 39.5
t39.5 16.5t39.5 -16.5t16.5 -39.5z" />
    <glyph glyph-name="igrave" unicode="&#xec;" horiz-adv-x="217" 
d="M107 556l-135 144h92l111 -144h-68zM59 0v483h99v-483h-99z" />
    <glyph glyph-name="iacute" unicode="&#xed;" horiz-adv-x="217" 
d="M111 556h-68l110 144h93zM59 0v483h99v-483h-99z" />
    <glyph glyph-name="icircumflex" unicode="&#xee;" horiz-adv-x="217" 
d="M175 556l-67 97l-64 -97h-60l78 144h92l81 -144h-60zM59 0v483h99v-483h-99z" />
    <glyph glyph-name="idieresis" unicode="&#xef;" horiz-adv-x="217" 
d="M257 607q0 -23 -17 -39.5t-40 -16.5t-39.5 16.5t-16.5 39.5t16.5 39.5t39.5 16.5t40 -16.5t17 -39.5zM74 607q0 -23 -16.5 -39.5t-39.5 -16.5t-39.5 16.5t-16.5 39.5t16.5 39.5t39.5 16.5t39.5 -16.5t16.5 -39.5zM59 0v483h99v-483h-99z" />
    <glyph glyph-name="eth" unicode="&#xf0;" horiz-adv-x="490" 
d="M100 543l108 47q-28 28 -55 52l71 61q20 -18 38 -36l35 -38l89 39l20 -48l-73 -33q56 -72 89 -154t33 -176q0 -59 -13.5 -108.5t-40 -85t-66 -55.5t-90.5 -20t-90 19t-65.5 52t-40.5 77t-14 94t12.5 93.5t36 76t57.5 51.5t76 19q43 0 73 -20.5t51 -57.5q-14 40 -39 79.5
t-56 76.5l-124 -55zM245 76q27 0 47 12.5t33 34t19.5 49.5t6.5 58t-6.5 57.5t-19.5 48.5t-33 34t-47 13t-47.5 -13t-33.5 -34t-19.5 -48.5t-6.5 -57.5t6.5 -58t19.5 -49.5t33.5 -34t47.5 -12.5z" />
    <glyph glyph-name="ntilde" unicode="&#xf1;" horiz-adv-x="486" 
d="M329 0v329q0 43 -18.5 60.5t-50.5 17.5t-59 -21t-41 -46v-340h-99v483h99v-65q10 15 25 28.5t33.5 24.5t39.5 17.5t44 6.5q66 0 96.5 -34.5t30.5 -97.5v-363h-100zM295 554q-23 0 -36.5 12.5t-23.5 27.5l-19 28q-8 13 -22 13q-16 0 -26.5 -18t-10.5 -57h-54q0 60 23.5 97
t68.5 37q23 0 36.5 -12.5t23 -28t18.5 -28t23 -12.5q16 0 26 18t10 57h54q0 -60 -23 -97t-68 -37z" />
    <glyph glyph-name="ograve" unicode="&#xf2;" horiz-adv-x="490" 
d="M245 -12q-51 0 -90.5 20.5t-66 55.5t-40 81t-13.5 97t13.5 97t40 80.5t66 55t90.5 20.5t90.5 -20.5t66 -55t40 -80.5t13.5 -97t-13.5 -97t-40 -81t-66 -55.5t-90.5 -20.5zM245 76q28 0 48 13.5t33 36.5t19 53t6 63t-6 62.5t-19 52.5t-33 36.5t-48 13.5t-48 -13.5
t-33 -36.5t-19.5 -52.5t-6.5 -62.5t6.5 -63t19.5 -53t33 -36.5t48 -13.5zM244 556l-135 144h92l111 -144h-68z" />
    <glyph glyph-name="oacute" unicode="&#xf3;" horiz-adv-x="490" 
d="M245 -12q-51 0 -90.5 20.5t-66 55.5t-40 81t-13.5 97t13.5 97t40 80.5t66 55t90.5 20.5t90.5 -20.5t66 -55t40 -80.5t13.5 -97t-13.5 -97t-40 -81t-66 -55.5t-90.5 -20.5zM245 76q28 0 48 13.5t33 36.5t19 53t6 63t-6 62.5t-19 52.5t-33 36.5t-48 13.5t-48 -13.5
t-33 -36.5t-19.5 -52.5t-6.5 -62.5t6.5 -63t19.5 -53t33 -36.5t48 -13.5zM247 556h-68l110 144h93z" />
    <glyph glyph-name="ocircumflex" unicode="&#xf4;" horiz-adv-x="490" 
d="M245 -12q-51 0 -90.5 20.5t-66 55.5t-40 81t-13.5 97t13.5 97t40 80.5t66 55t90.5 20.5t90.5 -20.5t66 -55t40 -80.5t13.5 -97t-13.5 -97t-40 -81t-66 -55.5t-90.5 -20.5zM245 76q28 0 48 13.5t33 36.5t19 53t6 63t-6 62.5t-19 52.5t-33 36.5t-48 13.5t-48 -13.5
t-33 -36.5t-19.5 -52.5t-6.5 -62.5t6.5 -63t19.5 -53t33 -36.5t48 -13.5zM311 556l-67 97l-64 -97h-60l78 144h92l81 -144h-60z" />
    <glyph glyph-name="otilde" unicode="&#xf5;" horiz-adv-x="490" 
d="M245 -12q-51 0 -90.5 20.5t-66 55.5t-40 81t-13.5 97t13.5 97t40 80.5t66 55t90.5 20.5t90.5 -20.5t66 -55t40 -80.5t13.5 -97t-13.5 -97t-40 -81t-66 -55.5t-90.5 -20.5zM245 76q28 0 48 13.5t33 36.5t19 53t6 63t-6 62.5t-19 52.5t-33 36.5t-48 13.5t-48 -13.5
t-33 -36.5t-19.5 -52.5t-6.5 -62.5t6.5 -63t19.5 -53t33 -36.5t48 -13.5zM295 554q-23 0 -36.5 12.5t-23.5 27.5l-19 28q-8 13 -22 13q-16 0 -26.5 -18t-10.5 -57h-54q0 60 23.5 97t68.5 37q23 0 36.5 -12.5t23 -28t18.5 -28t23 -12.5q16 0 26 18t10 57h54q0 -60 -23 -97
t-68 -37z" />
    <glyph glyph-name="odieresis" unicode="&#xf6;" horiz-adv-x="490" 
d="M245 -12q-51 0 -90.5 20.5t-66 55.5t-40 81t-13.5 97t13.5 97t40 80.5t66 55t90.5 20.5t90.5 -20.5t66 -55t40 -80.5t13.5 -97t-13.5 -97t-40 -81t-66 -55.5t-90.5 -20.5zM245 76q28 0 48 13.5t33 36.5t19 53t6 63t-6 62.5t-19 52.5t-33 36.5t-48 13.5t-48 -13.5
t-33 -36.5t-19.5 -52.5t-6.5 -62.5t6.5 -63t19.5 -53t33 -36.5t48 -13.5zM393 607q0 -23 -17 -39.5t-40 -16.5t-39.5 16.5t-16.5 39.5t16.5 39.5t39.5 16.5t40 -16.5t17 -39.5zM210 607q0 -23 -16.5 -39.5t-39.5 -16.5t-39.5 16.5t-16.5 39.5t16.5 39.5t39.5 16.5
t39.5 -16.5t16.5 -39.5z" />
    <glyph glyph-name="divide" unicode="&#xf7;" horiz-adv-x="443" 
d="M275 501q0 -22 -15.5 -37.5t-37.5 -15.5t-37.5 15.5t-15.5 37.5t15.5 37t37.5 15t37.5 -15t15.5 -37zM29 305v65h385v-65h-385zM275 171q0 -22 -15.5 -37.5t-37.5 -15.5t-37.5 15.5t-15.5 37.5t15.5 37t37.5 15t37.5 -15t15.5 -37z" />
    <glyph glyph-name="oslash" unicode="&#xf8;" horiz-adv-x="490" 
d="M45 0l44 63q-27 35 -40.5 81t-13.5 98q0 51 13.5 97t40 80.5t66 55t90.5 20.5q35 0 64.5 -10t52.5 -27l18 25h61l-42 -61q28 -35 42 -81.5t14 -98.5q0 -51 -13.5 -97t-40 -81t-66 -55.5t-90.5 -20.5q-36 0 -66 10t-54 28l-18 -26h-62zM245 76q28 0 48 13.5t33 36.5t19 53
t6 63q0 50 -14 90l-158 -228q26 -28 66 -28zM138 242q0 -24 3 -46.5t10 -42.5l157 227q-25 27 -63 27q-28 0 -48 -13.5t-33 -36.5t-19.5 -52.5t-6.5 -62.5z" />
    <glyph glyph-name="ugrave" unicode="&#xf9;" horiz-adv-x="486" 
d="M327 0v63q-10 -15 -25 -28.5t-33 -24t-39 -16.5t-44 -6q-66 0 -96.5 33.5t-30.5 96.5v365h99v-330q0 -43 19 -60t51 -17t58.5 20t40.5 45v342h99v-483h-99zM243 556l-135 144h92l111 -144h-68z" />
    <glyph glyph-name="uacute" unicode="&#xfa;" horiz-adv-x="486" 
d="M327 0v63q-10 -15 -25 -28.5t-33 -24t-39 -16.5t-44 -6q-66 0 -96.5 33.5t-30.5 96.5v365h99v-330q0 -43 19 -60t51 -17t58.5 20t40.5 45v342h99v-483h-99zM246 556h-68l110 144h93z" />
    <glyph glyph-name="ucircumflex" unicode="&#xfb;" horiz-adv-x="486" 
d="M327 0v63q-10 -15 -25 -28.5t-33 -24t-39 -16.5t-44 -6q-66 0 -96.5 33.5t-30.5 96.5v365h99v-330q0 -43 19 -60t51 -17t58.5 20t40.5 45v342h99v-483h-99zM309 556l-67 97l-64 -97h-60l78 144h92l81 -144h-60z" />
    <glyph glyph-name="udieresis" unicode="&#xfc;" horiz-adv-x="486" 
d="M327 0v63q-10 -15 -25 -28.5t-33 -24t-39 -16.5t-44 -6q-66 0 -96.5 33.5t-30.5 96.5v365h99v-330q0 -43 19 -60t51 -17t58.5 20t40.5 45v342h99v-483h-99zM393 607q0 -23 -17 -39.5t-40 -16.5t-39.5 16.5t-16.5 39.5t16.5 39.5t39.5 16.5t40 -16.5t17 -39.5zM210 607
q0 -23 -16.5 -39.5t-39.5 -16.5t-39.5 16.5t-16.5 39.5t16.5 39.5t39.5 16.5t39.5 -16.5t16.5 -39.5z" />
    <glyph glyph-name="yacute" unicode="&#xfd;" horiz-adv-x="432" 
d="M58 -101q6 -4 15 -5.5t16 -1.5q20 0 33.5 9t21.5 32l21 58l-164 492h107l108 -363l109 363h106l-192 -573q-21 -61 -56 -83t-86 -23q-11 0 -28 2t-26 5zM218 556h-68l110 144h93z" />
    <glyph glyph-name="thorn" unicode="&#xfe;" horiz-adv-x="494" 
d="M283 -12q-36 0 -69 18.5t-56 57.5v-248h-99v851h99v-247q22 36 54.5 55.5t70.5 19.5q41 0 74 -17.5t56 -50.5t35 -80t12 -105t-12 -105t-35 -80t-56 -51t-74 -18zM254 76q26 0 45.5 12.5t32 35t19 53t6.5 65.5t-6.5 65t-19 52.5t-32 35t-45.5 12.5q-29 0 -55.5 -19
t-40.5 -46v-200q13 -26 40 -46t56 -20z" />
    <glyph glyph-name="ydieresis" unicode="&#xff;" horiz-adv-x="432" 
d="M58 -101q6 -4 15 -5.5t16 -1.5q20 0 33.5 9t21.5 32l21 58l-164 492h107l108 -363l109 363h106l-192 -573q-21 -61 -56 -83t-86 -23q-11 0 -28 2t-26 5zM364 607q0 -23 -17 -39.5t-40 -16.5t-39.5 16.5t-16.5 39.5t16.5 39.5t39.5 16.5t40 -16.5t17 -39.5zM181 607
q0 -23 -16.5 -39.5t-39.5 -16.5t-39.5 16.5t-16.5 39.5t16.5 39.5t39.5 16.5t39.5 -16.5t16.5 -39.5z" />
    <glyph glyph-name="circumflex" unicode="&#x2c6;" horiz-adv-x="251" 
d="M191 556l-67 97l-64 -97h-60l78 144h92l81 -144h-60z" />
    <glyph glyph-name="tilde" unicode="&#x2dc;" horiz-adv-x="283" 
d="M192 554q-23 0 -36.5 12.5t-23.5 27.5l-19 28q-8 13 -22 13q-16 0 -26.5 -18t-10.5 -57h-54q0 60 23.5 97t68.5 37q23 0 36.5 -12.5t23 -28t18.5 -28t23 -12.5q16 0 26 18t10 57h54q0 -60 -23 -97t-68 -37z" />
    <glyph glyph-name="endash" unicode="&#x2013;" horiz-adv-x="527" 
d="M30 199v86h467v-86h-467z" />
    <glyph glyph-name="emdash" unicode="&#x2014;" horiz-adv-x="737" 
d="M30 199v86h677v-86h-677z" />
    <glyph glyph-name="quoteleft" unicode="&#x2018;" horiz-adv-x="243" 
d="M47 511q0 51 25 94.5t66 71.5l45 -36q-24 -15 -44.5 -42t-25.5 -52q2 1 6.5 1.5t9.5 0.5q24 0 40.5 -17t16.5 -44t-19 -46t-46 -19q-30 0 -52 23t-22 65z" />
    <glyph glyph-name="quoteright" unicode="&#x2019;" horiz-adv-x="243" 
d="M193 589q0 -51 -25 -94.5t-66 -72.5l-45 37q12 7 23.5 18t21 23.5t16.5 26t9 26.5q-2 -1 -6.5 -1.5t-9.5 -0.5q-24 0 -40.5 17t-16.5 43q0 27 19 46.5t46 19.5q30 0 52 -23t22 -65z" />
    <glyph glyph-name="quotesinglbase" unicode="&#x201a;" horiz-adv-x="243" 
d="M193 35q0 -51 -25 -94.5t-66 -71.5l-45 37q12 7 23.5 18t21 23.5t16.5 26t9 25.5q-2 -1 -6.5 -1.5t-9.5 -0.5q-24 0 -40.5 17t-16.5 44t19 46t46 19q30 0 52 -23t22 -65z" />
    <glyph glyph-name="quotedblleft" unicode="&#x201c;" horiz-adv-x="423" 
d="M49 511q0 51 25.5 94.5t65.5 71.5l46 -36q-24 -15 -45 -42t-26 -52q2 1 6.5 1.5t9.5 0.5q25 0 41.5 -17t16.5 -44t-19.5 -46t-46.5 -19q-29 0 -51.5 23t-22.5 65zM229 511q0 51 25.5 94.5t65.5 71.5l46 -36q-24 -15 -45 -42t-26 -52q6 2 16 2q25 0 41.5 -17t16.5 -44
t-19 -46t-46 -19q-30 0 -52.5 23t-22.5 65z" />
    <glyph glyph-name="quotedblright" unicode="&#x201d;" horiz-adv-x="423" 
d="M374 589q0 -51 -25.5 -94.5t-65.5 -72.5l-46 37q12 7 23.5 18t21.5 23.5t17 26t9 26.5q-6 -2 -16 -2q-25 0 -41.5 17t-16.5 43q0 27 19 46.5t46 19.5q30 0 52.5 -23t22.5 -65zM193 589q0 -51 -25 -94.5t-66 -72.5l-45 37q12 7 23.5 18t21 23.5t16.5 26t9 26.5
q-2 -1 -6.5 -1.5t-9.5 -0.5q-24 0 -40.5 17t-16.5 43q0 27 19 46.5t46 19.5q30 0 52 -23t22 -65z" />
    <glyph glyph-name="quotedblbase" unicode="&#x201e;" horiz-adv-x="423" 
d="M193 35q0 -51 -25 -94.5t-66 -71.5l-45 37q12 7 23.5 18t21 23.5t16.5 26t9 25.5q-2 -1 -6.5 -1.5t-9.5 -0.5q-24 0 -40.5 17t-16.5 44t19 46t46 19q30 0 52 -23t22 -65zM374 35q0 -51 -25.5 -94.5t-65.5 -71.5l-46 37q12 7 23.5 18t21.5 23.5t17 26t9 25.5q-6 -2 -16 -2
q-25 0 -41.5 17t-16.5 44t19 46t46 19q30 0 52.5 -23t22.5 -65z" />
    <glyph glyph-name="bullet" unicode="&#x2022;" horiz-adv-x="358" 
d="M293 242q0 -23 -9 -43.5t-24.5 -35.5t-36 -24t-43.5 -9t-43.5 9t-36 24t-24.5 35.5t-9 43.5t9 43.5t24.5 36t36 24.5t43.5 9t43.5 -9t36 -24.5t24.5 -36t9 -43.5z" />
    <glyph glyph-name="ellipsis" unicode="&#x2026;" horiz-adv-x="726" 
d="M188 57q0 -28 -19.5 -47.5t-47.5 -19.5t-47.5 19.5t-19.5 47.5q0 27 19.5 46.5t47.5 19.5t47.5 -19.5t19.5 -46.5zM430 57q0 -28 -19.5 -47.5t-47.5 -19.5t-47.5 19.5t-19.5 47.5q0 27 19.5 46.5t47.5 19.5t47.5 -19.5t19.5 -46.5zM672 57q0 -28 -20 -47.5t-47 -19.5
q-28 0 -47.5 19.5t-19.5 47.5q0 27 19.5 46.5t47.5 19.5q27 0 47 -19.5t20 -46.5z" />
    <glyph glyph-name="guilsinglleft" unicode="&#x2039;" horiz-adv-x="272" 
d="M155 63l-125 180l125 177h87l-125 -177l125 -180h-87z" />
    <glyph glyph-name="guilsinglright" unicode="&#x203a;" horiz-adv-x="272" 
d="M117 63h-87l125 180l-125 177h87l125 -177z" />
    <glyph glyph-name="trademark" unicode="&#x2122;" horiz-adv-x="414" 
d="M351 447v182l-65 -182h-8l-65 182v-182h-28v220h43l54 -158l54 158h43v-220h-28zM97 641v-194h-28v194h-52v26h132v-26h-52z" />
    </font>
</defs>
</svg>
